G04*
G04 #@! TF.GenerationSoftware,Altium Limited,Altium Designer,21.1.1 (26)*
G04*
G04 Layer_Color=65535*
%FSLAX25Y25*%
%MOIN*%
G70*
G04*
G04 #@! TF.SameCoordinates,EB652CFF-68FA-4F81-8967-BD5122A89D0C*
G04*
G04*
G04 #@! TF.FilePolarity,Positive*
G04*
G01*
G75*
%ADD10C,0.01000*%
%ADD11C,0.00600*%
%ADD12C,0.00472*%
D10*
X72169Y66009D02*
G03*
X71629Y65988I-2866J68889D01*
G01*
X486929Y18216D02*
Y63787D01*
Y18216D02*
X487913Y17232D01*
X527776D01*
X528563Y18020D01*
Y63000D01*
X527776Y63787D02*
X528563Y63000D01*
X486929Y63787D02*
X527776D01*
X487929Y130217D02*
Y175787D01*
Y130217D02*
X488913Y129232D01*
X528776D01*
X529563Y130020D01*
Y175000D01*
X528776Y175787D02*
X529563Y175000D01*
X487929Y175787D02*
X528776D01*
X294429Y20216D02*
Y65787D01*
Y20216D02*
X295413Y19232D01*
X335276D01*
X336063Y20020D01*
Y65000D01*
X335276Y65787D02*
X336063Y65000D01*
X294429Y65787D02*
X335276D01*
X293929Y71716D02*
Y117287D01*
Y71716D02*
X294913Y70732D01*
X334776D01*
X335563Y71520D01*
Y116500D01*
X334776Y117287D02*
X335563Y116500D01*
X293929Y117287D02*
X334776D01*
X293916Y127255D02*
Y172826D01*
Y127255D02*
X294900Y126271D01*
X334762D01*
X335549Y127058D01*
Y172039D01*
X334762Y172826D02*
X335549Y172039D01*
X293916Y172826D02*
X334762D01*
X293916Y179755D02*
Y225326D01*
Y179755D02*
X294900Y178771D01*
X334762D01*
X335549Y179558D01*
Y224539D01*
X334762Y225326D02*
X335549Y224539D01*
X293916Y225326D02*
X334762D01*
X338087Y227319D02*
Y256551D01*
X263972D02*
X338087D01*
X263382Y255961D02*
X263972Y256551D01*
X263382Y228008D02*
Y255961D01*
Y228008D02*
X264071Y227319D01*
X338087D01*
X442327Y165240D02*
X442524Y165437D01*
X442327Y157858D02*
Y165240D01*
Y157858D02*
X459453D01*
X459551Y157957D01*
Y165437D01*
X442524D02*
X459551D01*
X188013Y58311D02*
X220099D01*
X187324Y59000D02*
X188013Y58311D01*
X188013Y74453D02*
X220887D01*
X187324Y62863D02*
Y70590D01*
Y74453D02*
X188013D01*
X187324Y70590D02*
Y74453D01*
Y59000D02*
Y62863D01*
X220887Y58311D02*
Y74453D01*
X220099Y58311D02*
X220887D01*
X247850Y113240D02*
X248047Y113437D01*
X247850Y105858D02*
Y113240D01*
Y105858D02*
X264976D01*
X265075Y105957D01*
Y113437D01*
X248047D02*
X265075D01*
X248327Y53740D02*
X248524Y53937D01*
X248327Y46358D02*
Y53740D01*
Y46358D02*
X265453D01*
X265551Y46457D01*
Y53937D01*
X248524D02*
X265551D01*
X440850Y63740D02*
X441047Y63937D01*
X440850Y56358D02*
Y63740D01*
Y56358D02*
X457976D01*
X458075Y56457D01*
Y63937D01*
X441047D02*
X458075D01*
X441327Y106240D02*
X441524Y106437D01*
X441327Y98858D02*
Y106240D01*
Y98858D02*
X458453D01*
X458551Y98957D01*
Y106437D01*
X441524D02*
X458551D01*
X248350Y163240D02*
X248547Y163437D01*
X248350Y155858D02*
Y163240D01*
Y155858D02*
X265476D01*
X265575Y155957D01*
Y163437D01*
X248547D02*
X265575D01*
X248327Y215740D02*
X248524Y215937D01*
X248327Y208358D02*
Y215740D01*
Y208358D02*
X265453D01*
X265551Y208457D01*
Y215937D01*
X248524D02*
X265551D01*
X443327Y219740D02*
X443524Y219937D01*
X443327Y212358D02*
Y219740D01*
Y212358D02*
X460453D01*
X460551Y212457D01*
Y219937D01*
X443524D02*
X460551D01*
X188555Y157311D02*
X220642D01*
X187866Y158000D02*
X188555Y157311D01*
X188555Y173453D02*
X221429D01*
X187866Y161863D02*
Y169590D01*
Y173453D02*
X188555D01*
X187866Y169590D02*
Y173453D01*
Y158000D02*
Y161863D01*
X221429Y157311D02*
Y173453D01*
X220642Y157311D02*
X221429D01*
X487929Y228287D02*
X528776D01*
X529563Y227500D01*
Y182520D02*
Y227500D01*
X528776Y181732D02*
X529563Y182520D01*
X488913Y181732D02*
X528776D01*
X487929Y182717D02*
X488913Y181732D01*
X487929Y182717D02*
Y228287D01*
X486929Y116287D02*
X527776D01*
X528563Y115500D01*
Y70520D02*
Y115500D01*
X527776Y69732D02*
X528563Y70520D01*
X487913Y69732D02*
X527776D01*
X486929Y70717D02*
X487913Y69732D01*
X486929Y70717D02*
Y116287D01*
X353898Y22319D02*
X427913D01*
X353209Y23008D02*
X353898Y22319D01*
X353209Y23008D02*
Y50961D01*
X353799Y51551D01*
X427913D01*
Y22319D02*
Y51551D01*
X385055Y154311D02*
X417142D01*
X384366Y155000D02*
X385055Y154311D01*
X385055Y170453D02*
X417929D01*
X384366Y158863D02*
Y166590D01*
Y170453D02*
X385055D01*
X384366Y166590D02*
Y170453D01*
Y155000D02*
Y158863D01*
X417929Y154311D02*
Y170453D01*
X417142Y154311D02*
X417929D01*
X383055Y57811D02*
X415142D01*
X382366Y58500D02*
X383055Y57811D01*
X383055Y73953D02*
X415929D01*
X382366Y62363D02*
Y70090D01*
Y73953D02*
X383055D01*
X382366Y70090D02*
Y73953D01*
Y58500D02*
Y62363D01*
X415929Y57811D02*
Y73953D01*
X415142Y57811D02*
X415929D01*
X358291Y226638D02*
X431126D01*
X431520Y226244D01*
Y187366D02*
Y226244D01*
X431126Y186972D02*
X431520Y187366D01*
X357701Y186972D02*
X431126D01*
X354650Y190024D02*
X357701Y186972D01*
X354650Y190024D02*
Y222996D01*
X358291Y226638D01*
X355291Y130138D02*
X428126D01*
X428520Y129744D01*
Y90866D02*
Y129744D01*
X428126Y90472D02*
X428520Y90866D01*
X354701Y90472D02*
X428126D01*
X351650Y93524D02*
X354701Y90472D01*
X351650Y93524D02*
Y126496D01*
X355291Y130138D01*
X227437Y40063D02*
Y48429D01*
X227535Y48528D01*
X169760D02*
X227535D01*
X168874Y47642D02*
X169760Y48528D01*
X168874Y40752D02*
Y47642D01*
Y40752D02*
X169563Y40063D01*
X227437D01*
X157791Y129138D02*
X230626D01*
X231020Y128744D01*
Y89866D02*
Y128744D01*
X230626Y89472D02*
X231020Y89866D01*
X157201Y89472D02*
X230626D01*
X154150Y92524D02*
X157201Y89472D01*
X154150Y92524D02*
Y125496D01*
X157791Y129138D01*
X158791Y226138D02*
X231626D01*
X232020Y225744D01*
Y186866D02*
Y225744D01*
X231626Y186472D02*
X232020Y186866D01*
X158201Y186472D02*
X231626D01*
X155150Y189524D02*
X158201Y186472D01*
X155150Y189524D02*
Y222496D01*
X158791Y226138D01*
X51000Y245498D02*
X52999D01*
X52000D01*
Y239500D01*
X51000D01*
X52999D01*
X55998D02*
Y245498D01*
X59997Y239500D01*
Y245498D01*
X61996Y239500D02*
Y245498D01*
X64995D01*
X65995Y244498D01*
Y242499D01*
X64995Y241499D01*
X61996D01*
X67994Y245498D02*
Y240500D01*
X68994Y239500D01*
X70994D01*
X71993Y240500D01*
Y245498D01*
X73993D02*
X77991D01*
X75992D01*
Y239500D01*
X60499Y53998D02*
X59499Y54998D01*
X57500D01*
X56500Y53998D01*
Y50000D01*
X57500Y49000D01*
X59499D01*
X60499Y50000D01*
Y51999D01*
X58499D01*
X62498Y49000D02*
Y54998D01*
X66497Y49000D01*
Y54998D01*
X68496D02*
Y49000D01*
X71495D01*
X72495Y50000D01*
Y53998D01*
X71495Y54998D01*
X68496D01*
X26500Y11997D02*
Y5999D01*
X29499D01*
X30499Y6999D01*
Y10998D01*
X29499Y11997D01*
X26500D01*
X35497Y5999D02*
X33498D01*
X32498Y6999D01*
Y8998D01*
X33498Y9998D01*
X35497D01*
X36497Y8998D01*
Y7999D01*
X32498D01*
X38496Y5999D02*
X41495D01*
X42495Y6999D01*
X41495Y7999D01*
X39496D01*
X38496Y8998D01*
X39496Y9998D01*
X42495D01*
X44494Y5999D02*
X46494D01*
X45494D01*
Y9998D01*
X44494D01*
X51492Y4000D02*
X52492D01*
X53491Y5000D01*
Y9998D01*
X50492D01*
X49493Y8998D01*
Y6999D01*
X50492Y5999D01*
X53491D01*
X55491D02*
Y9998D01*
X58490D01*
X59489Y8998D01*
Y5999D01*
X64488D02*
X62488D01*
X61489Y6999D01*
Y8998D01*
X62488Y9998D01*
X64488D01*
X65487Y8998D01*
Y7999D01*
X61489D01*
X71486Y11997D02*
Y5999D01*
X68486D01*
X67487Y6999D01*
Y8998D01*
X68486Y9998D01*
X71486D01*
X79483Y11997D02*
Y5999D01*
X82482D01*
X83482Y6999D01*
Y7999D01*
Y8998D01*
X82482Y9998D01*
X79483D01*
X85481D02*
Y6999D01*
X86481Y5999D01*
X89480D01*
Y5000D01*
X88480Y4000D01*
X87480D01*
X89480Y5999D02*
Y9998D01*
X97477Y5999D02*
Y11997D01*
X99476Y9998D01*
X101476Y11997D01*
Y5999D01*
X103475D02*
Y6999D01*
X104475D01*
Y5999D01*
X103475D01*
X108474Y11997D02*
Y5999D01*
Y8998D01*
X112472D01*
Y11997D01*
Y5999D01*
X115471Y9998D02*
X117471D01*
X118470Y8998D01*
Y5999D01*
X115471D01*
X114471Y6999D01*
X115471Y7999D01*
X118470D01*
X120470Y5999D02*
Y9998D01*
X121469D01*
X122469Y8998D01*
Y5999D01*
Y8998D01*
X123469Y9998D01*
X124468Y8998D01*
Y5999D01*
X126468Y9998D02*
X130466D01*
X126468Y5999D01*
X130466D01*
X133465Y9998D02*
X135465D01*
X136464Y8998D01*
Y5999D01*
X133465D01*
X132466Y6999D01*
X133465Y7999D01*
X136464D01*
X144462Y11997D02*
Y5999D01*
X148460D01*
X150460D02*
X152459D01*
X151460D01*
Y9998D01*
X150460D01*
X155458Y5999D02*
Y9998D01*
X156458D01*
X157458Y8998D01*
Y5999D01*
Y8998D01*
X158457Y9998D01*
X159457Y8998D01*
Y5999D01*
X162456Y9998D02*
X164455D01*
X165455Y8998D01*
Y5999D01*
X162456D01*
X161456Y6999D01*
X162456Y7999D01*
X165455D01*
X167454Y5999D02*
Y9998D01*
X170453D01*
X171453Y8998D01*
Y5999D01*
X173452D02*
X175452D01*
X174452D01*
Y11997D01*
X173452D01*
X179451Y9998D02*
X181450D01*
X182449Y8998D01*
Y5999D01*
X179451D01*
X178451Y6999D01*
X179451Y7999D01*
X182449D01*
X184449Y9998D02*
Y5999D01*
Y7999D01*
X185449Y8998D01*
X186448Y9998D01*
X187448D01*
X221022Y26111D02*
X227020D01*
X224021D01*
Y30109D01*
X221022D01*
X227020D01*
Y32109D02*
Y34108D01*
Y33108D01*
X221022D01*
X222022Y32109D01*
X210022Y26111D02*
X216020D01*
X213021D01*
Y30109D01*
X210022D01*
X216020D01*
Y36107D02*
Y32109D01*
X212022Y36107D01*
X211022D01*
X210022Y35108D01*
Y33108D01*
X211022Y32109D01*
X200022Y26611D02*
X206020D01*
Y30609D01*
Y32609D02*
Y34608D01*
Y33608D01*
X200022D01*
X201022Y32609D01*
X191022Y26611D02*
X197020D01*
Y30609D01*
Y36607D02*
Y32609D01*
X193022Y36607D01*
X192022D01*
X191022Y35608D01*
Y33608D01*
X192022Y32609D01*
X187000Y16000D02*
Y18999D01*
X186000Y19999D01*
X185001Y18999D01*
Y17000D01*
X184001Y16000D01*
X183001Y17000D01*
Y19999D01*
X182002Y25997D02*
X181002Y24997D01*
Y22998D01*
X182002Y21998D01*
X186000D01*
X187000Y22998D01*
Y24997D01*
X186000Y25997D01*
X184001D01*
Y23997D01*
X187000Y27996D02*
X181002D01*
X187000Y31995D01*
X181002D01*
Y33994D02*
X187000D01*
Y36993D01*
X186000Y37993D01*
X182002D01*
X181002Y36993D01*
Y33994D01*
X143816Y25940D02*
X142816Y24940D01*
Y22941D01*
X143816Y21941D01*
X147814D01*
X148814Y22941D01*
Y24940D01*
X147814Y25940D01*
X145815D01*
Y23940D01*
X148814Y27939D02*
X142816D01*
X148814Y31938D01*
X142816D01*
Y33937D02*
X148814D01*
Y36936D01*
X147814Y37936D01*
X143816D01*
X142816Y36936D01*
Y33937D01*
X131502Y30499D02*
Y26500D01*
X134501D01*
X133501Y28499D01*
Y29499D01*
X134501Y30499D01*
X136500D01*
X137500Y29499D01*
Y27500D01*
X136500Y26500D01*
X131502Y32498D02*
X135501D01*
X137500Y34497D01*
X135501Y36497D01*
X131502D01*
X340002Y158999D02*
Y157000D01*
X341002Y156000D01*
X345000D01*
X346000Y157000D01*
Y158999D01*
X345000Y159999D01*
X341002D01*
X340002Y158999D01*
X342001Y161998D02*
X345000D01*
X346000Y162998D01*
Y165997D01*
X342001D01*
X341002Y168996D02*
X342001D01*
Y167996D01*
Y169995D01*
Y168996D01*
X345000D01*
X346000Y169995D01*
Y176993D02*
Y172994D01*
X342001Y176993D01*
X341002D01*
X340002Y175994D01*
Y173994D01*
X341002Y172994D01*
X335499Y10498D02*
X333500D01*
X332500Y9498D01*
Y5500D01*
X333500Y4500D01*
X335499D01*
X336499Y5500D01*
Y9498D01*
X335499Y10498D01*
X338498Y8499D02*
Y5500D01*
X339498Y4500D01*
X342497D01*
Y8499D01*
X345496Y9498D02*
Y8499D01*
X344496D01*
X346496D01*
X345496D01*
Y5500D01*
X346496Y4500D01*
X349495D02*
X351494D01*
X350494D01*
Y10498D01*
X349495Y9498D01*
X273500Y62001D02*
Y65999D01*
X272501Y66999D01*
X270501D01*
X269502Y65999D01*
Y62001D01*
X270501Y61001D01*
X272501D01*
X271501Y63000D02*
X273500Y61001D01*
X272501D02*
X273500Y62001D01*
X275500Y65999D02*
X276499Y66999D01*
X278499D01*
X279498Y65999D01*
Y65000D01*
X278499Y64000D01*
X279498Y63000D01*
Y62001D01*
X278499Y61001D01*
X276499D01*
X275500Y62001D01*
Y63000D01*
X276499Y64000D01*
X275500Y65000D01*
Y65999D01*
X276499Y64000D02*
X278499D01*
X272500Y111501D02*
Y115499D01*
X271501Y116499D01*
X269501D01*
X268502Y115499D01*
Y111501D01*
X269501Y110501D01*
X271501D01*
X270501Y112500D02*
X272500Y110501D01*
X271501D02*
X272500Y111501D01*
X274500Y116499D02*
X278498D01*
Y115499D01*
X274500Y111501D01*
Y110501D01*
X273500Y167501D02*
Y171499D01*
X272501Y172499D01*
X270501D01*
X269502Y171499D01*
Y167501D01*
X270501Y166501D01*
X272501D01*
X271501Y168500D02*
X273500Y166501D01*
X272501D02*
X273500Y167501D01*
X279498Y172499D02*
X277499Y171499D01*
X275500Y169500D01*
Y167501D01*
X276499Y166501D01*
X278499D01*
X279498Y167501D01*
Y168500D01*
X278499Y169500D01*
X275500D01*
X273500Y219001D02*
Y222999D01*
X272501Y223999D01*
X270501D01*
X269502Y222999D01*
Y219001D01*
X270501Y218001D01*
X272501D01*
X271501Y220000D02*
X273500Y218001D01*
X272501D02*
X273500Y219001D01*
X279498Y223999D02*
X275500D01*
Y221000D01*
X277499Y222000D01*
X278499D01*
X279498Y221000D01*
Y219001D01*
X278499Y218001D01*
X276499D01*
X275500Y219001D01*
X465500Y63001D02*
Y66999D01*
X464501Y67999D01*
X462501D01*
X461502Y66999D01*
Y63001D01*
X462501Y62001D01*
X464501D01*
X463501Y64000D02*
X465500Y62001D01*
X464501D02*
X465500Y63001D01*
X470499Y62001D02*
Y67999D01*
X467500Y65000D01*
X471498D01*
X465299Y120800D02*
Y124798D01*
X464299Y125798D01*
X462300D01*
X461300Y124798D01*
Y120800D01*
X462300Y119800D01*
X464299D01*
X463299Y121799D02*
X465299Y119800D01*
X464299D02*
X465299Y120800D01*
X467298Y124798D02*
X468298Y125798D01*
X470297D01*
X471297Y124798D01*
Y123799D01*
X470297Y122799D01*
X469297D01*
X470297D01*
X471297Y121799D01*
Y120800D01*
X470297Y119800D01*
X468298D01*
X467298Y120800D01*
X469500Y174501D02*
Y178499D01*
X468501Y179499D01*
X466501D01*
X465502Y178499D01*
Y174501D01*
X466501Y173501D01*
X468501D01*
X467501Y175500D02*
X469500Y173501D01*
X468501D02*
X469500Y174501D01*
X475498Y173501D02*
X471500D01*
X475498Y177500D01*
Y178499D01*
X474499Y179499D01*
X472499D01*
X471500Y178499D01*
X466299Y232800D02*
Y236798D01*
X465299Y237798D01*
X463300D01*
X462300Y236798D01*
Y232800D01*
X463300Y231800D01*
X465299D01*
X464299Y233799D02*
X466299Y231800D01*
X465299D02*
X466299Y232800D01*
X468298Y231800D02*
X470297D01*
X469298D01*
Y237798D01*
X468298Y236798D01*
X357699Y60098D02*
X356699Y61098D01*
X354700D01*
X353700Y60098D01*
Y56100D01*
X354700Y55100D01*
X356699D01*
X357699Y56100D01*
X359698Y55100D02*
X361697D01*
X360698D01*
Y61098D01*
X359698Y60098D01*
X364696Y55100D02*
X366696D01*
X365696D01*
Y61098D01*
X364696Y60098D01*
X255174Y240001D02*
X254174Y239001D01*
Y237002D01*
X255174Y236002D01*
X259173D01*
X260172Y237002D01*
Y239001D01*
X259173Y240001D01*
X260172Y242001D02*
Y244000D01*
Y243000D01*
X254174D01*
X255174Y242001D01*
Y246999D02*
X254174Y247998D01*
Y249998D01*
X255174Y250998D01*
X259173D01*
X260172Y249998D01*
Y247998D01*
X259173Y246999D01*
X255174D01*
D11*
X440059Y176929D02*
X456319D01*
X440059Y168169D02*
X459941D01*
X456319Y176929D02*
X459941D01*
X440059Y168169D02*
Y176929D01*
X459941Y168169D02*
Y176929D01*
X166059Y75429D02*
X182319D01*
X166059Y66669D02*
X185941D01*
X182319Y75429D02*
X185941D01*
X166059Y66669D02*
Y75429D01*
X185941Y66669D02*
Y75429D01*
X246059Y103429D02*
X262319D01*
X246059Y94669D02*
X265941D01*
X262319Y103429D02*
X265941D01*
X246059Y94669D02*
Y103429D01*
X265941Y94669D02*
Y103429D01*
X257071Y73059D02*
Y89319D01*
X265831Y73059D02*
Y92941D01*
X257071Y89319D02*
Y92941D01*
Y73059D02*
X265831D01*
X257071Y92941D02*
X265831D01*
X257571Y24059D02*
Y40319D01*
X266331Y24059D02*
Y43941D01*
X257571Y40319D02*
Y43941D01*
Y24059D02*
X266331D01*
X257571Y43941D02*
X266331D01*
X246559Y64429D02*
X262819D01*
X246559Y55669D02*
X266441D01*
X262819Y64429D02*
X266441D01*
X246559Y55669D02*
Y64429D01*
X266441Y55669D02*
Y64429D01*
X214146Y132268D02*
X214736D01*
Y140831D01*
X194264Y132268D02*
X214146D01*
X194264D02*
Y140831D01*
X214736D01*
X439559Y54429D02*
X455819D01*
X439559Y45669D02*
X459441D01*
X455819Y54429D02*
X459441D01*
X439559Y45669D02*
Y54429D01*
X459441Y45669D02*
Y54429D01*
X450571Y22559D02*
Y38819D01*
X459331Y22559D02*
Y42441D01*
X450571Y38819D02*
Y42441D01*
Y22559D02*
X459331D01*
X450571Y42441D02*
X459331D01*
X450071Y76559D02*
Y92819D01*
X458831Y76559D02*
Y96441D01*
X450071Y92819D02*
Y96441D01*
Y76559D02*
X458831D01*
X450071Y96441D02*
X458831D01*
X439559Y117929D02*
X455819D01*
X439559Y109169D02*
X459441D01*
X455819Y117929D02*
X459441D01*
X439559Y109169D02*
Y117929D01*
X459441Y109169D02*
Y117929D01*
X213146Y227768D02*
X213736D01*
Y236331D01*
X193264Y227768D02*
X213146D01*
X193264D02*
Y236331D01*
X213736D01*
X235146Y132768D02*
X235736D01*
Y141331D01*
X215264Y132768D02*
X235146D01*
X215264D02*
Y141331D01*
X235736D01*
X166059Y174929D02*
X182319D01*
X166059Y166169D02*
X185941D01*
X182319Y174929D02*
X185941D01*
X166059Y166169D02*
Y174929D01*
X185941Y166169D02*
Y174929D01*
X256571Y133669D02*
Y149929D01*
X265331Y133669D02*
Y153551D01*
X256571Y149929D02*
Y153551D01*
Y133669D02*
X265331D01*
X256571Y153551D02*
X265331D01*
X246559Y173929D02*
X262819D01*
X246559Y165169D02*
X266441D01*
X262819Y173929D02*
X266441D01*
X246559Y165169D02*
Y173929D01*
X266441Y165169D02*
Y173929D01*
X246559Y225929D02*
X262819D01*
X246559Y217169D02*
X266441D01*
X262819Y225929D02*
X266441D01*
X246559Y217169D02*
Y225929D01*
X266441Y217169D02*
Y225929D01*
X258071Y187169D02*
Y203429D01*
X266831Y187169D02*
Y207051D01*
X258071Y203429D02*
Y207051D01*
Y187169D02*
X266831D01*
X258071Y207051D02*
X266831D01*
X409646Y228768D02*
X410236D01*
Y237331D01*
X389764Y228768D02*
X409646D01*
X389764D02*
Y237331D01*
X410236D01*
X363059Y170429D02*
X379319D01*
X363059Y161669D02*
X382941D01*
X379319Y170429D02*
X382941D01*
X363059Y161669D02*
Y170429D01*
X382941Y161669D02*
Y170429D01*
X441559Y230429D02*
X457819D01*
X441559Y221669D02*
X461441D01*
X457819Y230429D02*
X461441D01*
X441559Y221669D02*
Y230429D01*
X461441Y221669D02*
Y230429D01*
X450071Y135559D02*
Y151819D01*
X458831Y135559D02*
Y155441D01*
X450071Y151819D02*
Y155441D01*
Y135559D02*
X458831D01*
X450071Y155441D02*
X458831D01*
X452071Y190559D02*
Y206819D01*
X460831Y190559D02*
Y210441D01*
X452071Y206819D02*
Y210441D01*
Y190559D02*
X460831D01*
X452071Y210441D02*
X460831D01*
X419768Y151764D02*
Y152354D01*
Y151764D02*
X428331D01*
X419768Y152354D02*
Y172236D01*
X428331D01*
Y151764D02*
Y172236D01*
X417268Y55764D02*
Y56354D01*
Y55764D02*
X425831D01*
X417268Y56354D02*
Y76236D01*
X425831D01*
Y55764D02*
Y76236D01*
X432146Y228768D02*
X432736D01*
Y237331D01*
X412264Y228768D02*
X432146D01*
X412264D02*
Y237331D01*
X432736D01*
X430146Y133768D02*
X430736D01*
Y142331D01*
X410264Y133768D02*
X430146D01*
X410264D02*
Y142331D01*
X430736D01*
X358264Y236732D02*
X358854D01*
X358264Y228169D02*
Y236732D01*
X358854D02*
X378736D01*
Y228169D02*
Y236732D01*
X358264Y228169D02*
X378736D01*
X354764Y143732D02*
X355354D01*
X354764Y135169D02*
Y143732D01*
X355354D02*
X375236D01*
Y135169D02*
Y143732D01*
X354764Y135169D02*
X375236D01*
X408146Y133768D02*
X408736D01*
Y142331D01*
X388264Y133768D02*
X408146D01*
X388264D02*
Y142331D01*
X408736D01*
X361059Y74929D02*
X377319D01*
X361059Y66169D02*
X380941D01*
X377319Y74929D02*
X380941D01*
X361059Y66169D02*
Y74929D01*
X380941Y66169D02*
Y74929D01*
X222768Y55264D02*
Y55854D01*
Y55264D02*
X231331D01*
X222768Y55854D02*
Y75736D01*
X231331D01*
Y55264D02*
Y75736D01*
X222768Y153764D02*
Y154354D01*
Y153764D02*
X231331D01*
X222768Y154354D02*
Y174236D01*
X231331D01*
Y153764D02*
Y174236D01*
X234535Y227768D02*
X235126D01*
Y236331D01*
X214653Y227768D02*
X234535D01*
X214653D02*
Y236331D01*
X235126D01*
X158764Y140232D02*
X159354D01*
X158764Y131669D02*
Y140232D01*
X159354D02*
X179236D01*
Y131669D02*
Y140232D01*
X158764Y131669D02*
X179236D01*
X158764Y235732D02*
X159354D01*
X158764Y227169D02*
Y235732D01*
X159354D02*
X179236D01*
Y227169D02*
Y235732D01*
X158764Y227169D02*
X179236D01*
D12*
X152600Y135255D02*
X154437Y132500D01*
Y135255D02*
X152600Y132500D01*
X156732D02*
Y135255D01*
X155355Y133878D01*
X157192D01*
X153600Y232255D02*
X155437Y229500D01*
Y232255D02*
X153600Y229500D01*
X156355Y231796D02*
X156814Y232255D01*
X157732D01*
X158192Y231796D01*
Y231337D01*
X157732Y230877D01*
X157273D01*
X157732D01*
X158192Y230418D01*
Y229959D01*
X157732Y229500D01*
X156814D01*
X156355Y229959D01*
X350100Y136255D02*
X351937Y133500D01*
Y136255D02*
X350100Y133500D01*
X354692D02*
X352855D01*
X354692Y135337D01*
Y135796D01*
X354233Y136255D01*
X353314D01*
X352855Y135796D01*
X353100Y232755D02*
X354937Y230000D01*
Y232755D02*
X353100Y230000D01*
X355855D02*
X356773D01*
X356314D01*
Y232755D01*
X355855Y232296D01*
X214658Y79878D02*
Y77582D01*
X215118Y77122D01*
X216036D01*
X216495Y77582D01*
Y79878D01*
X218791Y77122D02*
Y79878D01*
X217413Y78500D01*
X219250D01*
X218377Y154296D02*
X216082D01*
X215622Y153837D01*
Y152918D01*
X216082Y152459D01*
X218377D01*
X217918Y151541D02*
X218377Y151082D01*
Y150163D01*
X217918Y149704D01*
X217459D01*
X217000Y150163D01*
Y150622D01*
Y150163D01*
X216541Y149704D01*
X216082D01*
X215622Y150163D01*
Y151082D01*
X216082Y151541D01*
X414878Y82296D02*
X412582D01*
X412122Y81837D01*
Y80918D01*
X412582Y80459D01*
X414878D01*
X412122Y77704D02*
Y79541D01*
X413959Y77704D01*
X414418D01*
X414878Y78163D01*
Y79082D01*
X414418Y79541D01*
X411377Y179837D02*
X409082D01*
X408623Y179377D01*
Y178459D01*
X409082Y178000D01*
X411377D01*
X408623Y177082D02*
Y176163D01*
Y176622D01*
X411377D01*
X410918Y177082D01*
X161012Y75173D02*
X163767D01*
Y73796D01*
X163308Y73337D01*
X162390D01*
X161931Y73796D01*
Y75173D01*
Y74255D02*
X161012Y73337D01*
Y70582D02*
Y72418D01*
X162849Y70582D01*
X163308D01*
X163767Y71041D01*
Y71959D01*
X163308Y72418D01*
Y69663D02*
X163767Y69204D01*
Y68286D01*
X163308Y67827D01*
X161471D01*
X161012Y68286D01*
Y69204D01*
X161471Y69663D01*
X163308D01*
X161623Y175444D02*
X164377D01*
Y174066D01*
X163918Y173607D01*
X163000D01*
X162541Y174066D01*
Y175444D01*
Y174525D02*
X161623Y173607D01*
Y172689D02*
Y171770D01*
Y172230D01*
X164377D01*
X163918Y172689D01*
X162082Y170393D02*
X161623Y169934D01*
Y169015D01*
X162082Y168556D01*
X163918D01*
X164377Y169015D01*
Y169934D01*
X163918Y170393D01*
X163459D01*
X163000Y169934D01*
Y168556D01*
X242123Y63944D02*
X244878D01*
Y62566D01*
X244418Y62107D01*
X243500D01*
X243041Y62566D01*
Y63944D01*
Y63025D02*
X242123Y62107D01*
Y61189D02*
Y60270D01*
Y60730D01*
X244878D01*
X244418Y61189D01*
Y58893D02*
X244878Y58434D01*
Y57515D01*
X244418Y57056D01*
X243959D01*
X243500Y57515D01*
X243041Y57056D01*
X242582D01*
X242123Y57515D01*
Y58434D01*
X242582Y58893D01*
X243041D01*
X243500Y58434D01*
X243959Y58893D01*
X244418D01*
X243500Y58434D02*
Y57515D01*
X241622Y104444D02*
X244377D01*
Y103066D01*
X243918Y102607D01*
X243000D01*
X242541Y103066D01*
Y104444D01*
Y103525D02*
X241622Y102607D01*
Y101689D02*
Y100770D01*
Y101230D01*
X244377D01*
X243918Y101689D01*
X244377Y99393D02*
Y97556D01*
X243918D01*
X242082Y99393D01*
X241622D01*
X241123Y172444D02*
X243878D01*
Y171066D01*
X243418Y170607D01*
X242500D01*
X242041Y171066D01*
Y172444D01*
Y171525D02*
X241123Y170607D01*
Y169689D02*
Y168770D01*
Y169230D01*
X243878D01*
X243418Y169689D01*
X243878Y165556D02*
X243418Y166474D01*
X242500Y167393D01*
X241582D01*
X241123Y166934D01*
Y166015D01*
X241582Y165556D01*
X242041D01*
X242500Y166015D01*
Y167393D01*
X241512Y225444D02*
X244267D01*
Y224066D01*
X243808Y223607D01*
X242890D01*
X242431Y224066D01*
Y225444D01*
Y224525D02*
X241512Y223607D01*
Y222689D02*
Y221770D01*
Y222230D01*
X244267D01*
X243808Y222689D01*
X244267Y218556D02*
Y220393D01*
X242890D01*
X243349Y219475D01*
Y219015D01*
X242890Y218556D01*
X241971D01*
X241512Y219015D01*
Y219934D01*
X241971Y220393D01*
X260623Y21944D02*
X263377D01*
Y20566D01*
X262918Y20107D01*
X262000D01*
X261541Y20566D01*
Y21944D01*
Y21025D02*
X260623Y20107D01*
Y19189D02*
Y18270D01*
Y18730D01*
X263377D01*
X262918Y19189D01*
X260623Y15515D02*
X263377D01*
X262000Y16893D01*
Y15056D01*
X257556Y68622D02*
Y71377D01*
X258934D01*
X259393Y70918D01*
Y70000D01*
X258934Y69541D01*
X257556D01*
X258475D02*
X259393Y68622D01*
X260311D02*
X261230D01*
X260770D01*
Y71377D01*
X260311Y70918D01*
X262607D02*
X263066Y71377D01*
X263985D01*
X264444Y70918D01*
Y70459D01*
X263985Y70000D01*
X263525D01*
X263985D01*
X264444Y69541D01*
Y69082D01*
X263985Y68622D01*
X263066D01*
X262607Y69082D01*
X258056Y128733D02*
Y131488D01*
X259434D01*
X259893Y131029D01*
Y130110D01*
X259434Y129651D01*
X258056D01*
X258975D02*
X259893Y128733D01*
X260811D02*
X261730D01*
X261270D01*
Y131488D01*
X260811Y131029D01*
X264944Y128733D02*
X263107D01*
X264944Y130569D01*
Y131029D01*
X264485Y131488D01*
X263566D01*
X263107Y131029D01*
X259515Y182733D02*
Y185488D01*
X260893D01*
X261352Y185029D01*
Y184110D01*
X260893Y183651D01*
X259515D01*
X260434D02*
X261352Y182733D01*
X262270D02*
X263189D01*
X262730D01*
Y185488D01*
X262270Y185029D01*
X264566Y182733D02*
X265485D01*
X265025D01*
Y185488D01*
X264566Y185029D01*
X361200Y77700D02*
Y80455D01*
X362578D01*
X363037Y79996D01*
Y79078D01*
X362578Y78618D01*
X361200D01*
X362118D02*
X363037Y77700D01*
X363955D02*
X364873D01*
X364414D01*
Y80455D01*
X363955Y79996D01*
X366251D02*
X366710Y80455D01*
X367628D01*
X368088Y79996D01*
Y78159D01*
X367628Y77700D01*
X366710D01*
X366251Y78159D01*
Y79996D01*
X358512Y169296D02*
X361267D01*
Y167918D01*
X360808Y167459D01*
X359890D01*
X359431Y167918D01*
Y169296D01*
Y168377D02*
X358512Y167459D01*
X358971Y166541D02*
X358512Y166082D01*
Y165163D01*
X358971Y164704D01*
X360808D01*
X361267Y165163D01*
Y166082D01*
X360808Y166541D01*
X360349D01*
X359890Y166082D01*
Y164704D01*
X435122Y51296D02*
X437878D01*
Y49918D01*
X437418Y49459D01*
X436500D01*
X436041Y49918D01*
Y51296D01*
Y50378D02*
X435122Y49459D01*
X437418Y48541D02*
X437878Y48082D01*
Y47163D01*
X437418Y46704D01*
X436959D01*
X436500Y47163D01*
X436041Y46704D01*
X435582D01*
X435122Y47163D01*
Y48082D01*
X435582Y48541D01*
X436041D01*
X436500Y48082D01*
X436959Y48541D01*
X437418D01*
X436500Y48082D02*
Y47163D01*
X435733Y115796D02*
X438488D01*
Y114418D01*
X438029Y113959D01*
X437110D01*
X436651Y114418D01*
Y115796D01*
Y114877D02*
X435733Y113959D01*
X438488Y113041D02*
Y111204D01*
X438029D01*
X436192Y113041D01*
X435733D01*
X435122Y173796D02*
X437878D01*
Y172418D01*
X437418Y171959D01*
X436500D01*
X436041Y172418D01*
Y173796D01*
Y172878D02*
X435122Y171959D01*
X437878Y169204D02*
X437418Y170123D01*
X436500Y171041D01*
X435582D01*
X435122Y170582D01*
Y169663D01*
X435582Y169204D01*
X436041D01*
X436500Y169663D01*
Y171041D01*
X449622Y236796D02*
X452378D01*
Y235418D01*
X451918Y234959D01*
X451000D01*
X450541Y235418D01*
Y236796D01*
Y235877D02*
X449622Y234959D01*
X452378Y232204D02*
Y234041D01*
X451000D01*
X451459Y233122D01*
Y232663D01*
X451000Y232204D01*
X450082D01*
X449622Y232663D01*
Y233582D01*
X450082Y234041D01*
X454204Y18123D02*
Y20877D01*
X455582D01*
X456041Y20418D01*
Y19500D01*
X455582Y19041D01*
X454204D01*
X455123D02*
X456041Y18123D01*
X458337D02*
Y20877D01*
X456959Y19500D01*
X458796D01*
X451704Y72123D02*
Y74878D01*
X453082D01*
X453541Y74418D01*
Y73500D01*
X453082Y73041D01*
X451704D01*
X452623D02*
X453541Y72123D01*
X454459Y74418D02*
X454918Y74878D01*
X455837D01*
X456296Y74418D01*
Y73959D01*
X455837Y73500D01*
X455377D01*
X455837D01*
X456296Y73041D01*
Y72582D01*
X455837Y72123D01*
X454918D01*
X454459Y72582D01*
X454122Y133796D02*
X456878D01*
Y132418D01*
X456418Y131959D01*
X455500D01*
X455041Y132418D01*
Y133796D01*
Y132878D02*
X454122Y131959D01*
Y129204D02*
Y131041D01*
X455959Y129204D01*
X456418D01*
X456878Y129663D01*
Y130582D01*
X456418Y131041D01*
X455123Y189337D02*
X457877D01*
Y187959D01*
X457418Y187500D01*
X456500D01*
X456041Y187959D01*
Y189337D01*
Y188418D02*
X455123Y187500D01*
Y186582D02*
Y185663D01*
Y186123D01*
X457877D01*
X457418Y186582D01*
X247354Y52296D02*
X244599D01*
Y50918D01*
X245058Y50459D01*
X246895D01*
X247354Y50918D01*
Y52296D01*
X246895Y49541D02*
X247354Y49082D01*
Y48163D01*
X246895Y47704D01*
X246436D01*
X245976Y48163D01*
X245517Y47704D01*
X245058D01*
X244599Y48163D01*
Y49082D01*
X245058Y49541D01*
X245517D01*
X245976Y49082D01*
X246436Y49541D01*
X246895D01*
X245976Y49082D02*
Y48163D01*
X246377Y113796D02*
X243622D01*
Y112418D01*
X244082Y111959D01*
X245918D01*
X246377Y112418D01*
Y113796D01*
Y111041D02*
Y109204D01*
X245918D01*
X244082Y111041D01*
X243622D01*
X246878Y162296D02*
X244123D01*
Y160918D01*
X244582Y160459D01*
X246418D01*
X246878Y160918D01*
Y162296D01*
Y157704D02*
X246418Y158623D01*
X245500Y159541D01*
X244582D01*
X244123Y159082D01*
Y158163D01*
X244582Y157704D01*
X245041D01*
X245500Y158163D01*
Y159541D01*
X246878Y214796D02*
X244123D01*
Y213418D01*
X244582Y212959D01*
X246418D01*
X246878Y213418D01*
Y214796D01*
Y210204D02*
Y212041D01*
X245500D01*
X245959Y211122D01*
Y210663D01*
X245500Y210204D01*
X244582D01*
X244123Y210663D01*
Y211582D01*
X244582Y212041D01*
X439901Y62296D02*
X437146D01*
Y60918D01*
X437605Y60459D01*
X439442D01*
X439901Y60918D01*
Y62296D01*
X437146Y58163D02*
X439901D01*
X438524Y59541D01*
Y57704D01*
X439377Y104796D02*
X436622D01*
Y103418D01*
X437082Y102959D01*
X438918D01*
X439377Y103418D01*
Y104796D01*
X438918Y102041D02*
X439377Y101582D01*
Y100663D01*
X438918Y100204D01*
X438459D01*
X438000Y100663D01*
Y101122D01*
Y100663D01*
X437541Y100204D01*
X437082D01*
X436622Y100663D01*
Y101582D01*
X437082Y102041D01*
X440354Y162796D02*
X437599D01*
Y161418D01*
X438058Y160959D01*
X439895D01*
X440354Y161418D01*
Y162796D01*
X437599Y158204D02*
Y160041D01*
X439435Y158204D01*
X439895D01*
X440354Y158663D01*
Y159582D01*
X439895Y160041D01*
X439377Y216837D02*
X436622D01*
Y215459D01*
X437082Y215000D01*
X438918D01*
X439377Y215459D01*
Y216837D01*
X436622Y214082D02*
Y213163D01*
Y213622D01*
X439377D01*
X438918Y214082D01*
X170637Y53796D02*
X170177Y54255D01*
X169259D01*
X168800Y53796D01*
Y51959D01*
X169259Y51500D01*
X170177D01*
X170637Y51959D01*
X172014Y51500D02*
X172933D01*
X173392Y51959D01*
Y52877D01*
X172933Y53337D01*
X172014D01*
X171555Y52877D01*
Y51959D01*
X172014Y51500D01*
X174310D02*
Y53337D01*
X175688D01*
X176147Y52877D01*
Y51500D01*
X177065D02*
X177983D01*
X177524D01*
Y54255D01*
X177065Y53796D01*
X192918Y138107D02*
X193377Y138566D01*
Y139485D01*
X192918Y139944D01*
X191082D01*
X190622Y139485D01*
Y138566D01*
X191082Y138107D01*
X190622Y137189D02*
Y136270D01*
Y136730D01*
X193377D01*
X192918Y137189D01*
X191082Y134893D02*
X190622Y134434D01*
Y133515D01*
X191082Y133056D01*
X192918D01*
X193377Y133515D01*
Y134434D01*
X192918Y134893D01*
X192459D01*
X192000Y134434D01*
Y133056D01*
X201893Y239918D02*
X201434Y240377D01*
X200515D01*
X200056Y239918D01*
Y238082D01*
X200515Y237622D01*
X201434D01*
X201893Y238082D01*
X202811Y237622D02*
X203730D01*
X203270D01*
Y240377D01*
X202811Y239918D01*
X205107D02*
X205566Y240377D01*
X206485D01*
X206944Y239918D01*
Y239459D01*
X206485Y239000D01*
X206944Y238541D01*
Y238082D01*
X206485Y237622D01*
X205566D01*
X205107Y238082D01*
Y238541D01*
X205566Y239000D01*
X205107Y239459D01*
Y239918D01*
X205566Y239000D02*
X206485D01*
X160737Y240796D02*
X160277Y241255D01*
X159359D01*
X158900Y240796D01*
Y238959D01*
X159359Y238500D01*
X160277D01*
X160737Y238959D01*
X161655Y238500D02*
X162573D01*
X162114D01*
Y241255D01*
X161655Y240796D01*
X163951Y241255D02*
X165788D01*
Y240796D01*
X163951Y238959D01*
Y238500D01*
X160737Y145296D02*
X160277Y145755D01*
X159359D01*
X158900Y145296D01*
Y143459D01*
X159359Y143000D01*
X160277D01*
X160737Y143459D01*
X161655Y143000D02*
X162573D01*
X162114D01*
Y145755D01*
X161655Y145296D01*
X165788Y145755D02*
X164869Y145296D01*
X163951Y144378D01*
Y143459D01*
X164410Y143000D01*
X165328D01*
X165788Y143459D01*
Y143918D01*
X165328Y144378D01*
X163951D01*
X224393Y145418D02*
X223934Y145878D01*
X223015D01*
X222556Y145418D01*
Y143582D01*
X223015Y143122D01*
X223934D01*
X224393Y143582D01*
X225311Y143122D02*
X226230D01*
X225770D01*
Y145878D01*
X225311Y145418D01*
X229444Y145878D02*
X227607D01*
Y144500D01*
X228525Y144959D01*
X228985D01*
X229444Y144500D01*
Y143582D01*
X228985Y143122D01*
X228066D01*
X227607Y143582D01*
X216626Y241396D02*
X216167Y241855D01*
X215249D01*
X214790Y241396D01*
Y239559D01*
X215249Y239100D01*
X216167D01*
X216626Y239559D01*
X217545Y239100D02*
X218463D01*
X218004D01*
Y241855D01*
X217545Y241396D01*
X221218Y239100D02*
Y241855D01*
X219841Y240477D01*
X221677D01*
X224737Y80796D02*
X224277Y81255D01*
X223359D01*
X222900Y80796D01*
Y78959D01*
X223359Y78500D01*
X224277D01*
X224737Y78959D01*
X225655Y78500D02*
X226573D01*
X226114D01*
Y81255D01*
X225655Y80796D01*
X227951D02*
X228410Y81255D01*
X229328D01*
X229788Y80796D01*
Y80337D01*
X229328Y79878D01*
X228869D01*
X229328D01*
X229788Y79418D01*
Y78959D01*
X229328Y78500D01*
X228410D01*
X227951Y78959D01*
X224737Y179286D02*
X224277Y179745D01*
X223359D01*
X222900Y179286D01*
Y177449D01*
X223359Y176990D01*
X224277D01*
X224737Y177449D01*
X225655Y176990D02*
X226573D01*
X226114D01*
Y179745D01*
X225655Y179286D01*
X229787Y176990D02*
X227951D01*
X229787Y178826D01*
Y179286D01*
X229328Y179745D01*
X228410D01*
X227951Y179286D01*
X126418Y197329D02*
X126877Y197788D01*
Y198707D01*
X126418Y199166D01*
X124582D01*
X124123Y198707D01*
Y197788D01*
X124582Y197329D01*
Y196411D02*
X124123Y195952D01*
Y195033D01*
X124582Y194574D01*
X126418D01*
X126877Y195033D01*
Y195952D01*
X126418Y196411D01*
X125959D01*
X125500Y195952D01*
Y194574D01*
X390237Y147396D02*
X389777Y147855D01*
X388859D01*
X388400Y147396D01*
Y145559D01*
X388859Y145100D01*
X389777D01*
X390237Y145559D01*
X391155Y147396D02*
X391614Y147855D01*
X392532D01*
X392992Y147396D01*
Y146937D01*
X392532Y146477D01*
X392992Y146018D01*
Y145559D01*
X392532Y145100D01*
X391614D01*
X391155Y145559D01*
Y146018D01*
X391614Y146477D01*
X391155Y146937D01*
Y147396D01*
X391614Y146477D02*
X392532D01*
X388418Y232959D02*
X388878Y233418D01*
Y234337D01*
X388418Y234796D01*
X386582D01*
X386122Y234337D01*
Y233418D01*
X386582Y232959D01*
X388878Y232041D02*
Y230204D01*
X388418D01*
X386582Y232041D01*
X386122D01*
X356737Y148796D02*
X356277Y149255D01*
X355359D01*
X354900Y148796D01*
Y146959D01*
X355359Y146500D01*
X356277D01*
X356737Y146959D01*
X359492Y149255D02*
X358573Y148796D01*
X357655Y147878D01*
Y146959D01*
X358114Y146500D01*
X359033D01*
X359492Y146959D01*
Y147418D01*
X359033Y147878D01*
X357655D01*
X360237Y241796D02*
X359777Y242255D01*
X358859D01*
X358400Y241796D01*
Y239959D01*
X358859Y239500D01*
X359777D01*
X360237Y239959D01*
X362992Y242255D02*
X361155D01*
Y240878D01*
X362073Y241337D01*
X362532D01*
X362992Y240878D01*
Y239959D01*
X362532Y239500D01*
X361614D01*
X361155Y239959D01*
X412237Y147396D02*
X411777Y147855D01*
X410859D01*
X410400Y147396D01*
Y145559D01*
X410859Y145100D01*
X411777D01*
X412237Y145559D01*
X414533Y145100D02*
Y147855D01*
X413155Y146477D01*
X414992D01*
X414237Y242396D02*
X413777Y242855D01*
X412859D01*
X412400Y242396D01*
Y240559D01*
X412859Y240100D01*
X413777D01*
X414237Y240559D01*
X415155Y242396D02*
X415614Y242855D01*
X416533D01*
X416992Y242396D01*
Y241937D01*
X416533Y241477D01*
X416073D01*
X416533D01*
X416992Y241018D01*
Y240559D01*
X416533Y240100D01*
X415614D01*
X415155Y240559D01*
X419237Y81296D02*
X418778Y81755D01*
X417859D01*
X417400Y81296D01*
Y79459D01*
X417859Y79000D01*
X418778D01*
X419237Y79459D01*
X421992Y79000D02*
X420155D01*
X421992Y80837D01*
Y81296D01*
X421532Y81755D01*
X420614D01*
X420155Y81296D01*
X421737Y177296D02*
X421278Y177755D01*
X420359D01*
X419900Y177296D01*
Y175459D01*
X420359Y175000D01*
X421278D01*
X421737Y175459D01*
X422655Y175000D02*
X423573D01*
X423114D01*
Y177755D01*
X422655Y177296D01*
M02*
