G04*
G04 #@! TF.GenerationSoftware,Altium Limited,Altium Designer,21.1.1 (26)*
G04*
G04 Layer_Color=255*
%FSLAX25Y25*%
%MOIN*%
G70*
G04*
G04 #@! TF.SameCoordinates,EB652CFF-68FA-4F81-8967-BD5122A89D0C*
G04*
G04*
G04 #@! TF.FilePolarity,Positive*
G04*
G01*
G75*
%ADD13R,0.37402X0.42520*%
%ADD14R,0.18504X0.05906*%
%ADD15R,0.03937X0.06693*%
%ADD16R,0.03937X0.04724*%
%ADD17R,0.04724X0.03150*%
%ADD18R,0.06693X0.03937*%
%ADD35C,0.03937*%
%ADD36C,0.06000*%
%ADD37C,0.11811*%
D13*
X508000Y40500D02*
D03*
X509000Y152500D02*
D03*
X315500Y42500D02*
D03*
X315000Y94000D02*
D03*
X314987Y149539D02*
D03*
Y202039D02*
D03*
X509000Y205000D02*
D03*
X508000Y93000D02*
D03*
D14*
X470000Y29500D02*
D03*
Y50500D02*
D03*
X471000Y141500D02*
D03*
Y162500D02*
D03*
X277500Y31500D02*
D03*
Y52500D02*
D03*
X277000Y83000D02*
D03*
Y104000D02*
D03*
X276987Y138539D02*
D03*
Y159539D02*
D03*
Y191039D02*
D03*
Y212039D02*
D03*
X471000Y215000D02*
D03*
Y194000D02*
D03*
X470000Y103000D02*
D03*
Y82000D02*
D03*
D15*
X456890Y172500D02*
D03*
X443110D02*
D03*
X182890Y71000D02*
D03*
X169110D02*
D03*
X262890Y99000D02*
D03*
X249110D02*
D03*
X263390Y60000D02*
D03*
X249610D02*
D03*
X197610Y136500D02*
D03*
X211390D02*
D03*
X456390Y50000D02*
D03*
X442610D02*
D03*
X456390Y113500D02*
D03*
X442610D02*
D03*
X196610Y232000D02*
D03*
X210390D02*
D03*
X218610Y137000D02*
D03*
X232390D02*
D03*
X182890Y170500D02*
D03*
X169110D02*
D03*
X263390Y169500D02*
D03*
X249610D02*
D03*
X263390Y221500D02*
D03*
X249610D02*
D03*
X393110Y233000D02*
D03*
X406890D02*
D03*
X379890Y166000D02*
D03*
X366110D02*
D03*
X458390Y226000D02*
D03*
X444610D02*
D03*
X415610Y233000D02*
D03*
X429390D02*
D03*
X413610Y138000D02*
D03*
X427390D02*
D03*
X375390Y232500D02*
D03*
X361610D02*
D03*
X371890Y139500D02*
D03*
X358110D02*
D03*
X391610Y138000D02*
D03*
X405390D02*
D03*
X377890Y70500D02*
D03*
X364110D02*
D03*
X218000Y232000D02*
D03*
X231780D02*
D03*
X175890Y136000D02*
D03*
X162110D02*
D03*
X175890Y231500D02*
D03*
X162110D02*
D03*
D16*
X456500Y161500D02*
D03*
X445476D02*
D03*
X262024Y109500D02*
D03*
X251000D02*
D03*
X262500Y50000D02*
D03*
X251476D02*
D03*
X455024Y60000D02*
D03*
X444000D02*
D03*
X455500Y102500D02*
D03*
X444476D02*
D03*
X262524Y159500D02*
D03*
X251500D02*
D03*
X262500Y212000D02*
D03*
X251476D02*
D03*
X457500Y216000D02*
D03*
X446476D02*
D03*
D17*
X191458Y71500D02*
D03*
Y61500D02*
D03*
X216500D02*
D03*
X216454Y66500D02*
D03*
X216356Y71500D02*
D03*
X192000Y170500D02*
D03*
Y160500D02*
D03*
X217042D02*
D03*
X216997Y165500D02*
D03*
X216898Y170500D02*
D03*
X388500Y167500D02*
D03*
Y157500D02*
D03*
X413542D02*
D03*
X413497Y162500D02*
D03*
X413398Y167500D02*
D03*
X386500Y71000D02*
D03*
Y61000D02*
D03*
X411542D02*
D03*
X411497Y66000D02*
D03*
X411398Y71000D02*
D03*
D18*
X261500Y89890D02*
D03*
Y76110D02*
D03*
X262000Y40890D02*
D03*
Y27110D02*
D03*
X455000Y39390D02*
D03*
Y25610D02*
D03*
X454500Y93390D02*
D03*
Y79610D02*
D03*
X261000Y150500D02*
D03*
Y136721D02*
D03*
X262500Y204000D02*
D03*
Y190220D02*
D03*
X454500Y152390D02*
D03*
Y138610D02*
D03*
X456500Y207390D02*
D03*
Y193610D02*
D03*
X424000Y168890D02*
D03*
Y155110D02*
D03*
X421500Y72890D02*
D03*
Y59110D02*
D03*
X227000Y72390D02*
D03*
Y58610D02*
D03*
Y170890D02*
D03*
Y157110D02*
D03*
D35*
X520013Y27461D02*
D03*
X515013D02*
D03*
X509513D02*
D03*
X504013D02*
D03*
X520013Y35461D02*
D03*
X514513D02*
D03*
X509513D02*
D03*
X504013D02*
D03*
X498513Y27461D02*
D03*
Y35461D02*
D03*
X492513Y27461D02*
D03*
Y35461D02*
D03*
X519513Y41961D02*
D03*
X514513D02*
D03*
X509513D02*
D03*
X504013D02*
D03*
X498513D02*
D03*
X492596Y41959D02*
D03*
X519096Y48959D02*
D03*
X514096D02*
D03*
X509096D02*
D03*
X504096D02*
D03*
X498596D02*
D03*
X492596D02*
D03*
X519000Y56000D02*
D03*
X514000D02*
D03*
X508500D02*
D03*
X503500D02*
D03*
X498000D02*
D03*
X492500D02*
D03*
X521013Y139461D02*
D03*
X516013D02*
D03*
X510513D02*
D03*
X505013D02*
D03*
X521013Y147461D02*
D03*
X515513D02*
D03*
X510513D02*
D03*
X505013D02*
D03*
X499513Y139461D02*
D03*
Y147461D02*
D03*
X493513Y139461D02*
D03*
Y147461D02*
D03*
X520513Y153961D02*
D03*
X515513D02*
D03*
X510513D02*
D03*
X505013D02*
D03*
X499513D02*
D03*
X493596Y153959D02*
D03*
X520096Y160959D02*
D03*
X515096D02*
D03*
X510096D02*
D03*
X505096D02*
D03*
X499596D02*
D03*
X493596D02*
D03*
X520000Y168000D02*
D03*
X515000D02*
D03*
X509500D02*
D03*
X504500D02*
D03*
X499000D02*
D03*
X493500D02*
D03*
X327513Y29461D02*
D03*
X322513D02*
D03*
X317013D02*
D03*
X311513D02*
D03*
X327513Y37461D02*
D03*
X322013D02*
D03*
X317013D02*
D03*
X311513D02*
D03*
X306013Y29461D02*
D03*
Y37461D02*
D03*
X300013Y29461D02*
D03*
Y37461D02*
D03*
X327013Y43961D02*
D03*
X322013D02*
D03*
X317013D02*
D03*
X311513D02*
D03*
X306013D02*
D03*
X300096Y43959D02*
D03*
X326596Y50959D02*
D03*
X321596D02*
D03*
X316596D02*
D03*
X311596D02*
D03*
X306096D02*
D03*
X300096D02*
D03*
X326500Y58000D02*
D03*
X321500D02*
D03*
X316000D02*
D03*
X311000D02*
D03*
X305500D02*
D03*
X300000D02*
D03*
X327013Y80961D02*
D03*
X322013D02*
D03*
X316513D02*
D03*
X311013D02*
D03*
X327013Y88961D02*
D03*
X321513D02*
D03*
X316513D02*
D03*
X311013D02*
D03*
X305513Y80961D02*
D03*
Y88961D02*
D03*
X299513Y80961D02*
D03*
Y88961D02*
D03*
X326513Y95461D02*
D03*
X321513D02*
D03*
X316513D02*
D03*
X311013D02*
D03*
X305513D02*
D03*
X299596Y95459D02*
D03*
X326096Y102459D02*
D03*
X321096D02*
D03*
X316096D02*
D03*
X311096D02*
D03*
X305596D02*
D03*
X299596D02*
D03*
X326000Y109500D02*
D03*
X321000D02*
D03*
X315500D02*
D03*
X310500D02*
D03*
X305000D02*
D03*
X299500D02*
D03*
X327000Y136500D02*
D03*
X322000D02*
D03*
X316500D02*
D03*
X311000D02*
D03*
X327000Y144500D02*
D03*
X321500D02*
D03*
X316500D02*
D03*
X311000D02*
D03*
X305500Y136500D02*
D03*
Y144500D02*
D03*
X299500Y136500D02*
D03*
Y144500D02*
D03*
X326500Y151000D02*
D03*
X321500D02*
D03*
X316500D02*
D03*
X311000D02*
D03*
X305500D02*
D03*
X299582Y150998D02*
D03*
X326082Y157998D02*
D03*
X321082D02*
D03*
X316082D02*
D03*
X311082D02*
D03*
X305582D02*
D03*
X299582D02*
D03*
X325987Y165039D02*
D03*
X320987D02*
D03*
X315487D02*
D03*
X310487D02*
D03*
X304987D02*
D03*
X299487D02*
D03*
X327000Y189000D02*
D03*
X322000D02*
D03*
X316500D02*
D03*
X311000D02*
D03*
X327000Y197000D02*
D03*
X321500D02*
D03*
X316500D02*
D03*
X311000D02*
D03*
X305500Y189000D02*
D03*
Y197000D02*
D03*
X299500Y189000D02*
D03*
Y197000D02*
D03*
X326500Y203500D02*
D03*
X321500D02*
D03*
X316500D02*
D03*
X311000D02*
D03*
X305500D02*
D03*
X299582Y203498D02*
D03*
X326082Y210498D02*
D03*
X321082D02*
D03*
X316082D02*
D03*
X311082D02*
D03*
X305582D02*
D03*
X299582D02*
D03*
X325987Y217539D02*
D03*
X320987D02*
D03*
X315487D02*
D03*
X310487D02*
D03*
X304987D02*
D03*
X299487D02*
D03*
X493500Y220500D02*
D03*
X499000D02*
D03*
X504500D02*
D03*
X509500D02*
D03*
X515000D02*
D03*
X520000D02*
D03*
X493596Y213459D02*
D03*
X499596D02*
D03*
X505096D02*
D03*
X510096D02*
D03*
X515096D02*
D03*
X520096D02*
D03*
X493596Y206459D02*
D03*
X499513Y206461D02*
D03*
X505013D02*
D03*
X510513D02*
D03*
X515513D02*
D03*
X520513D02*
D03*
X493513Y199961D02*
D03*
Y191961D02*
D03*
X499513Y199961D02*
D03*
Y191961D02*
D03*
X505013Y199961D02*
D03*
X510513D02*
D03*
X515513D02*
D03*
X521013D02*
D03*
X505013Y191961D02*
D03*
X510513D02*
D03*
X516013D02*
D03*
X521013D02*
D03*
X492500Y108500D02*
D03*
X498000D02*
D03*
X503500D02*
D03*
X508500D02*
D03*
X514000D02*
D03*
X519000D02*
D03*
X492596Y101459D02*
D03*
X498596D02*
D03*
X504096D02*
D03*
X509096D02*
D03*
X514096D02*
D03*
X519096D02*
D03*
X492596Y94459D02*
D03*
X498513Y94461D02*
D03*
X504013D02*
D03*
X509513D02*
D03*
X514513D02*
D03*
X519513D02*
D03*
X492513Y87961D02*
D03*
Y79961D02*
D03*
X498513Y87961D02*
D03*
Y79961D02*
D03*
X504013Y87961D02*
D03*
X509513D02*
D03*
X514513D02*
D03*
X520013D02*
D03*
X504013Y79961D02*
D03*
X509513D02*
D03*
X515013D02*
D03*
X520013D02*
D03*
D36*
X281000Y241000D02*
D03*
X320173D02*
D03*
X410000Y36000D02*
D03*
X370827D02*
D03*
X364000Y216500D02*
D03*
X374000D02*
D03*
X404000D02*
D03*
X414000D02*
D03*
X424000D02*
D03*
X361000Y120000D02*
D03*
X371000D02*
D03*
X401000D02*
D03*
X411000D02*
D03*
X421000D02*
D03*
X173500Y44000D02*
D03*
X183500D02*
D03*
X193500D02*
D03*
X203500D02*
D03*
X213500D02*
D03*
X223500D02*
D03*
X163500Y119000D02*
D03*
X173500D02*
D03*
X203500D02*
D03*
X213500D02*
D03*
X223500D02*
D03*
X164500Y216000D02*
D03*
X174500D02*
D03*
X204500D02*
D03*
X214500D02*
D03*
X224500D02*
D03*
D37*
X69500Y155370D02*
D03*
Y116000D02*
D03*
M02*
