G04*
G04 #@! TF.GenerationSoftware,Altium Limited,Altium Designer,21.1.1 (26)*
G04*
G04 Layer_Color=128*
%FSLAX25Y25*%
%MOIN*%
G70*
G04*
G04 #@! TF.SameCoordinates,EB652CFF-68FA-4F81-8967-BD5122A89D0C*
G04*
G04*
G04 #@! TF.FilePolarity,Positive*
G04*
G01*
G75*
%ADD43C,0.00200*%
D43*
X519226Y27461D02*
X520801D01*
X520013Y26674D02*
Y28249D01*
X514226Y27461D02*
X515801D01*
X515013Y26674D02*
Y28249D01*
X508726Y27461D02*
X510301D01*
X509513Y26674D02*
Y28249D01*
X503226Y27461D02*
X504801D01*
X504013Y26674D02*
Y28249D01*
X519226Y35461D02*
X520801D01*
X520013Y34674D02*
Y36249D01*
X513726Y35461D02*
X515301D01*
X514513Y34674D02*
Y36249D01*
X508726Y35461D02*
X510301D01*
X509513Y34674D02*
Y36249D01*
X503226Y35461D02*
X504801D01*
X504013Y34674D02*
Y36249D01*
X497726Y27461D02*
X499301D01*
X498513Y26674D02*
Y28249D01*
X497726Y35461D02*
X499301D01*
X498513Y34674D02*
Y36249D01*
X491726Y27461D02*
X493301D01*
X492513Y26674D02*
Y28249D01*
X491726Y35461D02*
X493301D01*
X492513Y34674D02*
Y36249D01*
X518726Y41961D02*
X520301D01*
X519513Y41174D02*
Y42749D01*
X513726Y41961D02*
X515301D01*
X514513Y41174D02*
Y42749D01*
X508726Y41961D02*
X510301D01*
X509513Y41174D02*
Y42749D01*
X503226Y41961D02*
X504801D01*
X504013Y41174D02*
Y42749D01*
X497726Y41961D02*
X499301D01*
X498513Y41174D02*
Y42749D01*
X491808Y41959D02*
X493383D01*
X492596Y41172D02*
Y42746D01*
X518308Y48959D02*
X519883D01*
X519096Y48172D02*
Y49746D01*
X513308Y48959D02*
X514883D01*
X514096Y48172D02*
Y49746D01*
X508308Y48959D02*
X509883D01*
X509096Y48172D02*
Y49746D01*
X503308Y48959D02*
X504883D01*
X504096Y48172D02*
Y49746D01*
X497808Y48959D02*
X499383D01*
X498596Y48172D02*
Y49746D01*
X491808Y48959D02*
X493383D01*
X492596Y48172D02*
Y49746D01*
X518213Y56000D02*
X519787D01*
X519000Y55213D02*
Y56787D01*
X513213Y56000D02*
X514787D01*
X514000Y55213D02*
Y56787D01*
X507713Y56000D02*
X509287D01*
X508500Y55213D02*
Y56787D01*
X502713Y56000D02*
X504287D01*
X503500Y55213D02*
Y56787D01*
X497213Y56000D02*
X498787D01*
X498000Y55213D02*
Y56787D01*
X491713Y56000D02*
X493287D01*
X492500Y55213D02*
Y56787D01*
X520226Y139461D02*
X521801D01*
X521013Y138674D02*
Y140249D01*
X515226Y139461D02*
X516801D01*
X516013Y138674D02*
Y140249D01*
X509726Y139461D02*
X511301D01*
X510513Y138674D02*
Y140249D01*
X504226Y139461D02*
X505801D01*
X505013Y138674D02*
Y140249D01*
X520226Y147461D02*
X521801D01*
X521013Y146674D02*
Y148249D01*
X514726Y147461D02*
X516301D01*
X515513Y146674D02*
Y148249D01*
X509726Y147461D02*
X511301D01*
X510513Y146674D02*
Y148249D01*
X504226Y147461D02*
X505801D01*
X505013Y146674D02*
Y148249D01*
X498726Y139461D02*
X500301D01*
X499513Y138674D02*
Y140249D01*
X498726Y147461D02*
X500301D01*
X499513Y146674D02*
Y148249D01*
X492726Y139461D02*
X494301D01*
X493513Y138674D02*
Y140249D01*
X492726Y147461D02*
X494301D01*
X493513Y146674D02*
Y148249D01*
X519726Y153961D02*
X521301D01*
X520513Y153174D02*
Y154749D01*
X514726Y153961D02*
X516301D01*
X515513Y153174D02*
Y154749D01*
X509726Y153961D02*
X511301D01*
X510513Y153174D02*
Y154749D01*
X504226Y153961D02*
X505801D01*
X505013Y153174D02*
Y154749D01*
X498726Y153961D02*
X500301D01*
X499513Y153174D02*
Y154749D01*
X492808Y153959D02*
X494383D01*
X493596Y153172D02*
Y154746D01*
X519308Y160959D02*
X520883D01*
X520096Y160172D02*
Y161746D01*
X514308Y160959D02*
X515883D01*
X515096Y160172D02*
Y161746D01*
X509308Y160959D02*
X510883D01*
X510096Y160172D02*
Y161746D01*
X504308Y160959D02*
X505883D01*
X505096Y160172D02*
Y161746D01*
X498808Y160959D02*
X500383D01*
X499596Y160172D02*
Y161746D01*
X492808Y160959D02*
X494383D01*
X493596Y160172D02*
Y161746D01*
X519213Y168000D02*
X520787D01*
X520000Y167213D02*
Y168787D01*
X514213Y168000D02*
X515787D01*
X515000Y167213D02*
Y168787D01*
X508713Y168000D02*
X510287D01*
X509500Y167213D02*
Y168787D01*
X503713Y168000D02*
X505287D01*
X504500Y167213D02*
Y168787D01*
X498213Y168000D02*
X499787D01*
X499000Y167213D02*
Y168787D01*
X492713Y168000D02*
X494287D01*
X493500Y167213D02*
Y168787D01*
X326726Y29461D02*
X328301D01*
X327513Y28674D02*
Y30249D01*
X321726Y29461D02*
X323301D01*
X322513Y28674D02*
Y30249D01*
X316226Y29461D02*
X317801D01*
X317013Y28674D02*
Y30249D01*
X310726Y29461D02*
X312301D01*
X311513Y28674D02*
Y30249D01*
X326726Y37461D02*
X328301D01*
X327513Y36674D02*
Y38249D01*
X321226Y37461D02*
X322801D01*
X322013Y36674D02*
Y38249D01*
X316226Y37461D02*
X317801D01*
X317013Y36674D02*
Y38249D01*
X310726Y37461D02*
X312301D01*
X311513Y36674D02*
Y38249D01*
X305226Y29461D02*
X306801D01*
X306013Y28674D02*
Y30249D01*
X305226Y37461D02*
X306801D01*
X306013Y36674D02*
Y38249D01*
X299226Y29461D02*
X300801D01*
X300013Y28674D02*
Y30249D01*
X299226Y37461D02*
X300801D01*
X300013Y36674D02*
Y38249D01*
X326226Y43961D02*
X327801D01*
X327013Y43174D02*
Y44749D01*
X321226Y43961D02*
X322801D01*
X322013Y43174D02*
Y44749D01*
X316226Y43961D02*
X317801D01*
X317013Y43174D02*
Y44749D01*
X310726Y43961D02*
X312301D01*
X311513Y43174D02*
Y44749D01*
X305226Y43961D02*
X306801D01*
X306013Y43174D02*
Y44749D01*
X299308Y43959D02*
X300883D01*
X300096Y43172D02*
Y44746D01*
X325808Y50959D02*
X327383D01*
X326596Y50172D02*
Y51746D01*
X320808Y50959D02*
X322383D01*
X321596Y50172D02*
Y51746D01*
X315808Y50959D02*
X317383D01*
X316596Y50172D02*
Y51746D01*
X310808Y50959D02*
X312383D01*
X311596Y50172D02*
Y51746D01*
X305308Y50959D02*
X306883D01*
X306096Y50172D02*
Y51746D01*
X299308Y50959D02*
X300883D01*
X300096Y50172D02*
Y51746D01*
X325713Y58000D02*
X327287D01*
X326500Y57213D02*
Y58787D01*
X320713Y58000D02*
X322287D01*
X321500Y57213D02*
Y58787D01*
X315213Y58000D02*
X316787D01*
X316000Y57213D02*
Y58787D01*
X310213Y58000D02*
X311787D01*
X311000Y57213D02*
Y58787D01*
X304713Y58000D02*
X306287D01*
X305500Y57213D02*
Y58787D01*
X299213Y58000D02*
X300787D01*
X300000Y57213D02*
Y58787D01*
X326226Y80961D02*
X327801D01*
X327013Y80174D02*
Y81749D01*
X321226Y80961D02*
X322801D01*
X322013Y80174D02*
Y81749D01*
X315726Y80961D02*
X317301D01*
X316513Y80174D02*
Y81749D01*
X310226Y80961D02*
X311801D01*
X311013Y80174D02*
Y81749D01*
X326226Y88961D02*
X327801D01*
X327013Y88174D02*
Y89749D01*
X320726Y88961D02*
X322301D01*
X321513Y88174D02*
Y89749D01*
X315726Y88961D02*
X317301D01*
X316513Y88174D02*
Y89749D01*
X310226Y88961D02*
X311801D01*
X311013Y88174D02*
Y89749D01*
X304726Y80961D02*
X306301D01*
X305513Y80174D02*
Y81749D01*
X304726Y88961D02*
X306301D01*
X305513Y88174D02*
Y89749D01*
X298726Y80961D02*
X300301D01*
X299513Y80174D02*
Y81749D01*
X298726Y88961D02*
X300301D01*
X299513Y88174D02*
Y89749D01*
X325726Y95461D02*
X327301D01*
X326513Y94674D02*
Y96249D01*
X320726Y95461D02*
X322301D01*
X321513Y94674D02*
Y96249D01*
X315726Y95461D02*
X317301D01*
X316513Y94674D02*
Y96249D01*
X310226Y95461D02*
X311801D01*
X311013Y94674D02*
Y96249D01*
X304726Y95461D02*
X306301D01*
X305513Y94674D02*
Y96249D01*
X298808Y95459D02*
X300383D01*
X299596Y94672D02*
Y96246D01*
X325308Y102459D02*
X326883D01*
X326096Y101672D02*
Y103246D01*
X320308Y102459D02*
X321883D01*
X321096Y101672D02*
Y103246D01*
X315308Y102459D02*
X316883D01*
X316096Y101672D02*
Y103246D01*
X310308Y102459D02*
X311883D01*
X311096Y101672D02*
Y103246D01*
X304808Y102459D02*
X306383D01*
X305596Y101672D02*
Y103246D01*
X298808Y102459D02*
X300383D01*
X299596Y101672D02*
Y103246D01*
X325213Y109500D02*
X326787D01*
X326000Y108713D02*
Y110287D01*
X320213Y109500D02*
X321787D01*
X321000Y108713D02*
Y110287D01*
X314713Y109500D02*
X316287D01*
X315500Y108713D02*
Y110287D01*
X309713Y109500D02*
X311287D01*
X310500Y108713D02*
Y110287D01*
X304213Y109500D02*
X305787D01*
X305000Y108713D02*
Y110287D01*
X298713Y109500D02*
X300287D01*
X299500Y108713D02*
Y110287D01*
X326213Y136500D02*
X327787D01*
X327000Y135713D02*
Y137287D01*
X321213Y136500D02*
X322787D01*
X322000Y135713D02*
Y137287D01*
X315713Y136500D02*
X317287D01*
X316500Y135713D02*
Y137287D01*
X310213Y136500D02*
X311787D01*
X311000Y135713D02*
Y137287D01*
X326213Y144500D02*
X327787D01*
X327000Y143713D02*
Y145287D01*
X320713Y144500D02*
X322287D01*
X321500Y143713D02*
Y145287D01*
X315713Y144500D02*
X317287D01*
X316500Y143713D02*
Y145287D01*
X310213Y144500D02*
X311787D01*
X311000Y143713D02*
Y145287D01*
X304713Y136500D02*
X306287D01*
X305500Y135713D02*
Y137287D01*
X304713Y144500D02*
X306287D01*
X305500Y143713D02*
Y145287D01*
X298713Y136500D02*
X300287D01*
X299500Y135713D02*
Y137287D01*
X298713Y144500D02*
X300287D01*
X299500Y143713D02*
Y145287D01*
X325713Y151000D02*
X327287D01*
X326500Y150213D02*
Y151787D01*
X320713Y151000D02*
X322287D01*
X321500Y150213D02*
Y151787D01*
X315713Y151000D02*
X317287D01*
X316500Y150213D02*
Y151787D01*
X310213Y151000D02*
X311787D01*
X311000Y150213D02*
Y151787D01*
X304713Y151000D02*
X306287D01*
X305500Y150213D02*
Y151787D01*
X298795Y150998D02*
X300370D01*
X299582Y150210D02*
Y151785D01*
X325295Y157998D02*
X326870D01*
X326082Y157210D02*
Y158785D01*
X320295Y157998D02*
X321870D01*
X321082Y157210D02*
Y158785D01*
X315295Y157998D02*
X316870D01*
X316082Y157210D02*
Y158785D01*
X310295Y157998D02*
X311870D01*
X311082Y157210D02*
Y158785D01*
X304795Y157998D02*
X306370D01*
X305582Y157210D02*
Y158785D01*
X298795Y157998D02*
X300370D01*
X299582Y157210D02*
Y158785D01*
X325199Y165039D02*
X326774D01*
X325987Y164251D02*
Y165826D01*
X320199Y165039D02*
X321774D01*
X320987Y164251D02*
Y165826D01*
X314699Y165039D02*
X316274D01*
X315487Y164251D02*
Y165826D01*
X309699Y165039D02*
X311274D01*
X310487Y164251D02*
Y165826D01*
X304199Y165039D02*
X305774D01*
X304987Y164251D02*
Y165826D01*
X298699Y165039D02*
X300274D01*
X299487Y164251D02*
Y165826D01*
X326213Y189000D02*
X327787D01*
X327000Y188213D02*
Y189787D01*
X321213Y189000D02*
X322787D01*
X322000Y188213D02*
Y189787D01*
X315713Y189000D02*
X317287D01*
X316500Y188213D02*
Y189787D01*
X310213Y189000D02*
X311787D01*
X311000Y188213D02*
Y189787D01*
X326213Y197000D02*
X327787D01*
X327000Y196213D02*
Y197787D01*
X320713Y197000D02*
X322287D01*
X321500Y196213D02*
Y197787D01*
X315713Y197000D02*
X317287D01*
X316500Y196213D02*
Y197787D01*
X310213Y197000D02*
X311787D01*
X311000Y196213D02*
Y197787D01*
X304713Y189000D02*
X306287D01*
X305500Y188213D02*
Y189787D01*
X304713Y197000D02*
X306287D01*
X305500Y196213D02*
Y197787D01*
X298713Y189000D02*
X300287D01*
X299500Y188213D02*
Y189787D01*
X298713Y197000D02*
X300287D01*
X299500Y196213D02*
Y197787D01*
X325713Y203500D02*
X327287D01*
X326500Y202713D02*
Y204287D01*
X320713Y203500D02*
X322287D01*
X321500Y202713D02*
Y204287D01*
X315713Y203500D02*
X317287D01*
X316500Y202713D02*
Y204287D01*
X310213Y203500D02*
X311787D01*
X311000Y202713D02*
Y204287D01*
X304713Y203500D02*
X306287D01*
X305500Y202713D02*
Y204287D01*
X298795Y203498D02*
X300370D01*
X299582Y202710D02*
Y204285D01*
X325295Y210498D02*
X326870D01*
X326082Y209710D02*
Y211285D01*
X320295Y210498D02*
X321870D01*
X321082Y209710D02*
Y211285D01*
X315295Y210498D02*
X316870D01*
X316082Y209710D02*
Y211285D01*
X310295Y210498D02*
X311870D01*
X311082Y209710D02*
Y211285D01*
X304795Y210498D02*
X306370D01*
X305582Y209710D02*
Y211285D01*
X298795Y210498D02*
X300370D01*
X299582Y209710D02*
Y211285D01*
X325199Y217539D02*
X326774D01*
X325987Y216751D02*
Y218326D01*
X320199Y217539D02*
X321774D01*
X320987Y216751D02*
Y218326D01*
X314699Y217539D02*
X316274D01*
X315487Y216751D02*
Y218326D01*
X309699Y217539D02*
X311274D01*
X310487Y216751D02*
Y218326D01*
X304199Y217539D02*
X305774D01*
X304987Y216751D02*
Y218326D01*
X298699Y217539D02*
X300274D01*
X299487Y216751D02*
Y218326D01*
X279500Y241000D02*
X282500D01*
X281000Y239500D02*
Y242500D01*
X318673Y241000D02*
X321673D01*
X320173Y239500D02*
Y242500D01*
X66547Y155370D02*
X72453D01*
X69500Y152417D02*
Y158323D01*
X66547Y116000D02*
X72453D01*
X69500Y113047D02*
Y118953D01*
X492713Y220500D02*
X494287D01*
X493500Y219713D02*
Y221287D01*
X498213Y220500D02*
X499787D01*
X499000Y219713D02*
Y221287D01*
X503713Y220500D02*
X505287D01*
X504500Y219713D02*
Y221287D01*
X508713Y220500D02*
X510287D01*
X509500Y219713D02*
Y221287D01*
X514213Y220500D02*
X515787D01*
X515000Y219713D02*
Y221287D01*
X519213Y220500D02*
X520787D01*
X520000Y219713D02*
Y221287D01*
X492808Y213459D02*
X494383D01*
X493596Y212672D02*
Y214246D01*
X498808Y213459D02*
X500383D01*
X499596Y212672D02*
Y214246D01*
X504308Y213459D02*
X505883D01*
X505096Y212672D02*
Y214246D01*
X509308Y213459D02*
X510883D01*
X510096Y212672D02*
Y214246D01*
X514308Y213459D02*
X515883D01*
X515096Y212672D02*
Y214246D01*
X519308Y213459D02*
X520883D01*
X520096Y212672D02*
Y214246D01*
X492808Y206459D02*
X494383D01*
X493596Y205672D02*
Y207246D01*
X498726Y206461D02*
X500301D01*
X499513Y205674D02*
Y207249D01*
X504226Y206461D02*
X505801D01*
X505013Y205674D02*
Y207249D01*
X509726Y206461D02*
X511301D01*
X510513Y205674D02*
Y207249D01*
X514726Y206461D02*
X516301D01*
X515513Y205674D02*
Y207249D01*
X519726Y206461D02*
X521301D01*
X520513Y205674D02*
Y207249D01*
X492726Y199961D02*
X494301D01*
X493513Y199174D02*
Y200749D01*
X492726Y191961D02*
X494301D01*
X493513Y191174D02*
Y192749D01*
X498726Y199961D02*
X500301D01*
X499513Y199174D02*
Y200749D01*
X498726Y191961D02*
X500301D01*
X499513Y191174D02*
Y192749D01*
X504226Y199961D02*
X505801D01*
X505013Y199174D02*
Y200749D01*
X509726Y199961D02*
X511301D01*
X510513Y199174D02*
Y200749D01*
X514726Y199961D02*
X516301D01*
X515513Y199174D02*
Y200749D01*
X520226Y199961D02*
X521801D01*
X521013Y199174D02*
Y200749D01*
X504226Y191961D02*
X505801D01*
X505013Y191174D02*
Y192749D01*
X509726Y191961D02*
X511301D01*
X510513Y191174D02*
Y192749D01*
X515226Y191961D02*
X516801D01*
X516013Y191174D02*
Y192749D01*
X520226Y191961D02*
X521801D01*
X521013Y191174D02*
Y192749D01*
X491713Y108500D02*
X493287D01*
X492500Y107713D02*
Y109287D01*
X497213Y108500D02*
X498787D01*
X498000Y107713D02*
Y109287D01*
X502713Y108500D02*
X504287D01*
X503500Y107713D02*
Y109287D01*
X507713Y108500D02*
X509287D01*
X508500Y107713D02*
Y109287D01*
X513213Y108500D02*
X514787D01*
X514000Y107713D02*
Y109287D01*
X518213Y108500D02*
X519787D01*
X519000Y107713D02*
Y109287D01*
X491808Y101459D02*
X493383D01*
X492596Y100672D02*
Y102246D01*
X497808Y101459D02*
X499383D01*
X498596Y100672D02*
Y102246D01*
X503308Y101459D02*
X504883D01*
X504096Y100672D02*
Y102246D01*
X508308Y101459D02*
X509883D01*
X509096Y100672D02*
Y102246D01*
X513308Y101459D02*
X514883D01*
X514096Y100672D02*
Y102246D01*
X518308Y101459D02*
X519883D01*
X519096Y100672D02*
Y102246D01*
X491808Y94459D02*
X493383D01*
X492596Y93672D02*
Y95246D01*
X497726Y94461D02*
X499301D01*
X498513Y93674D02*
Y95249D01*
X503226Y94461D02*
X504801D01*
X504013Y93674D02*
Y95249D01*
X508726Y94461D02*
X510301D01*
X509513Y93674D02*
Y95249D01*
X513726Y94461D02*
X515301D01*
X514513Y93674D02*
Y95249D01*
X518726Y94461D02*
X520301D01*
X519513Y93674D02*
Y95249D01*
X491726Y87961D02*
X493301D01*
X492513Y87174D02*
Y88749D01*
X491726Y79961D02*
X493301D01*
X492513Y79174D02*
Y80749D01*
X497726Y87961D02*
X499301D01*
X498513Y87174D02*
Y88749D01*
X497726Y79961D02*
X499301D01*
X498513Y79174D02*
Y80749D01*
X503226Y87961D02*
X504801D01*
X504013Y87174D02*
Y88749D01*
X508726Y87961D02*
X510301D01*
X509513Y87174D02*
Y88749D01*
X513726Y87961D02*
X515301D01*
X514513Y87174D02*
Y88749D01*
X519226Y87961D02*
X520801D01*
X520013Y87174D02*
Y88749D01*
X503226Y79961D02*
X504801D01*
X504013Y79174D02*
Y80749D01*
X508726Y79961D02*
X510301D01*
X509513Y79174D02*
Y80749D01*
X514226Y79961D02*
X515801D01*
X515013Y79174D02*
Y80749D01*
X519226Y79961D02*
X520801D01*
X520013Y79174D02*
Y80749D01*
X408500Y36000D02*
X411500D01*
X410000Y34500D02*
Y37500D01*
X369327Y36000D02*
X372327D01*
X370827Y34500D02*
Y37500D01*
X362500Y216500D02*
X365500D01*
X364000Y215000D02*
Y218000D01*
X372500Y216500D02*
X375500D01*
X374000Y215000D02*
Y218000D01*
X402500Y216500D02*
X405500D01*
X404000Y215000D02*
Y218000D01*
X412500Y216500D02*
X415500D01*
X414000Y215000D02*
Y218000D01*
X422500Y216500D02*
X425500D01*
X424000Y215000D02*
Y218000D01*
X359500Y120000D02*
X362500D01*
X361000Y118500D02*
Y121500D01*
X369500Y120000D02*
X372500D01*
X371000Y118500D02*
Y121500D01*
X399500Y120000D02*
X402500D01*
X401000Y118500D02*
Y121500D01*
X409500Y120000D02*
X412500D01*
X411000Y118500D02*
Y121500D01*
X419500Y120000D02*
X422500D01*
X421000Y118500D02*
Y121500D01*
X172000Y44000D02*
X175000D01*
X173500Y42500D02*
Y45500D01*
X182000Y44000D02*
X185000D01*
X183500Y42500D02*
Y45500D01*
X192000Y44000D02*
X195000D01*
X193500Y42500D02*
Y45500D01*
X202000Y44000D02*
X205000D01*
X203500Y42500D02*
Y45500D01*
X212000Y44000D02*
X215000D01*
X213500Y42500D02*
Y45500D01*
X222000Y44000D02*
X225000D01*
X223500Y42500D02*
Y45500D01*
X162000Y119000D02*
X165000D01*
X163500Y117500D02*
Y120500D01*
X172000Y119000D02*
X175000D01*
X173500Y117500D02*
Y120500D01*
X202000Y119000D02*
X205000D01*
X203500Y117500D02*
Y120500D01*
X212000Y119000D02*
X215000D01*
X213500Y117500D02*
Y120500D01*
X222000Y119000D02*
X225000D01*
X223500Y117500D02*
Y120500D01*
X163000Y216000D02*
X166000D01*
X164500Y214500D02*
Y217500D01*
X173000Y216000D02*
X176000D01*
X174500Y214500D02*
Y217500D01*
X203000Y216000D02*
X206000D01*
X204500Y214500D02*
Y217500D01*
X213000Y216000D02*
X216000D01*
X214500Y214500D02*
Y217500D01*
X223000Y216000D02*
X226000D01*
X224500Y214500D02*
Y217500D01*
X339579Y185500D02*
X349421D01*
X344500Y180579D02*
Y190421D01*
X528536Y11405D02*
X538378D01*
X533457Y6484D02*
Y16326D01*
X526536Y253905D02*
X536378D01*
X531457Y248984D02*
Y258826D01*
X7536Y10905D02*
X17378D01*
X12457Y5984D02*
Y15826D01*
X6036Y255405D02*
X15878D01*
X10957Y250484D02*
Y260326D01*
X77079Y228000D02*
X86921D01*
X82000Y223079D02*
Y232921D01*
X48579Y227500D02*
X58421D01*
X53500Y222579D02*
Y232421D01*
X76579Y36500D02*
X86421D01*
X81500Y31579D02*
Y41421D01*
X50579Y37000D02*
X60421D01*
X55500Y32079D02*
Y41921D01*
X253100Y4000D02*
X255900D01*
X254500Y2600D02*
Y5400D01*
X261600Y4500D02*
X264400D01*
X263000Y3100D02*
Y5900D01*
X269600Y4500D02*
X272400D01*
X271000Y3100D02*
Y5900D01*
X279100Y4500D02*
X281900D01*
X280500Y3100D02*
Y5900D01*
X133031Y43000D02*
X136969D01*
X135000Y41032D02*
Y44969D01*
X144032Y43000D02*
X147968D01*
X146000Y41032D02*
Y44969D01*
X339579Y198500D02*
X349421D01*
X344500Y193579D02*
Y203421D01*
X480600Y182000D02*
X483400D01*
X482000Y180600D02*
Y183400D01*
X474600Y182000D02*
X477400D01*
X476000Y180600D02*
Y183400D01*
X469100Y182500D02*
X471900D01*
X470500Y181100D02*
Y183900D01*
X388600Y184500D02*
X391400D01*
X390000Y183100D02*
Y185900D01*
X388600Y192500D02*
X391400D01*
X390000Y191100D02*
Y193900D01*
X383579Y10000D02*
X393421D01*
X388500Y5079D02*
Y14921D01*
X353545Y174802D02*
X356345D01*
X354945Y173402D02*
Y176202D01*
X190600Y153000D02*
X193400D01*
X192000Y151600D02*
Y154400D01*
X327555Y120500D02*
X330355D01*
X328955Y119100D02*
Y121900D01*
X351100Y70500D02*
X353900D01*
X352500Y69100D02*
Y71900D01*
X348100Y212000D02*
X350900D01*
X349500Y210600D02*
Y213400D01*
X271600Y182000D02*
X274400D01*
X273000Y180600D02*
Y183400D01*
X462100Y131500D02*
X464900D01*
X463500Y130100D02*
Y132900D01*
X465100Y36000D02*
X467900D01*
X466500Y34600D02*
Y37400D01*
X477100Y21500D02*
X479900D01*
X478500Y20100D02*
Y22900D01*
X472100Y21500D02*
X474900D01*
X473500Y20100D02*
Y22900D01*
X466600Y21500D02*
X469400D01*
X468000Y20100D02*
Y22900D01*
X461100Y21500D02*
X463900D01*
X462500Y20100D02*
Y22900D01*
X383579Y10500D02*
X393421D01*
X388500Y5579D02*
Y15421D01*
X364579Y10500D02*
X374421D01*
X369500Y5579D02*
Y15421D01*
X465600Y74500D02*
X468400D01*
X467000Y73100D02*
Y75900D01*
X464100Y186500D02*
X466900D01*
X465500Y185100D02*
Y187900D01*
M02*
