G04*
G04 #@! TF.GenerationSoftware,Altium Limited,Altium Designer,21.1.1 (26)*
G04*
G04 Layer_Color=255*
%FSLAX25Y25*%
%MOIN*%
G70*
G04*
G04 #@! TF.SameCoordinates,EB652CFF-68FA-4F81-8967-BD5122A89D0C*
G04*
G04*
G04 #@! TF.FilePolarity,Positive*
G04*
G01*
G75*
%ADD35C,0.03937*%
%ADD36C,0.06000*%
%ADD37C,0.11811*%
D35*
X520013Y27461D02*
D03*
X515013D02*
D03*
X509513D02*
D03*
X504013D02*
D03*
X520013Y35461D02*
D03*
X514513D02*
D03*
X509513D02*
D03*
X504013D02*
D03*
X498513Y27461D02*
D03*
Y35461D02*
D03*
X492513Y27461D02*
D03*
Y35461D02*
D03*
X519513Y41961D02*
D03*
X514513D02*
D03*
X509513D02*
D03*
X504013D02*
D03*
X498513D02*
D03*
X492596Y41959D02*
D03*
X519096Y48959D02*
D03*
X514096D02*
D03*
X509096D02*
D03*
X504096D02*
D03*
X498596D02*
D03*
X492596D02*
D03*
X519000Y56000D02*
D03*
X514000D02*
D03*
X508500D02*
D03*
X503500D02*
D03*
X498000D02*
D03*
X492500D02*
D03*
X521013Y139461D02*
D03*
X516013D02*
D03*
X510513D02*
D03*
X505013D02*
D03*
X521013Y147461D02*
D03*
X515513D02*
D03*
X510513D02*
D03*
X505013D02*
D03*
X499513Y139461D02*
D03*
Y147461D02*
D03*
X493513Y139461D02*
D03*
Y147461D02*
D03*
X520513Y153961D02*
D03*
X515513D02*
D03*
X510513D02*
D03*
X505013D02*
D03*
X499513D02*
D03*
X493596Y153959D02*
D03*
X520096Y160959D02*
D03*
X515096D02*
D03*
X510096D02*
D03*
X505096D02*
D03*
X499596D02*
D03*
X493596D02*
D03*
X520000Y168000D02*
D03*
X515000D02*
D03*
X509500D02*
D03*
X504500D02*
D03*
X499000D02*
D03*
X493500D02*
D03*
X327513Y29461D02*
D03*
X322513D02*
D03*
X317013D02*
D03*
X311513D02*
D03*
X327513Y37461D02*
D03*
X322013D02*
D03*
X317013D02*
D03*
X311513D02*
D03*
X306013Y29461D02*
D03*
Y37461D02*
D03*
X300013Y29461D02*
D03*
Y37461D02*
D03*
X327013Y43961D02*
D03*
X322013D02*
D03*
X317013D02*
D03*
X311513D02*
D03*
X306013D02*
D03*
X300096Y43959D02*
D03*
X326596Y50959D02*
D03*
X321596D02*
D03*
X316596D02*
D03*
X311596D02*
D03*
X306096D02*
D03*
X300096D02*
D03*
X326500Y58000D02*
D03*
X321500D02*
D03*
X316000D02*
D03*
X311000D02*
D03*
X305500D02*
D03*
X300000D02*
D03*
X327013Y80961D02*
D03*
X322013D02*
D03*
X316513D02*
D03*
X311013D02*
D03*
X327013Y88961D02*
D03*
X321513D02*
D03*
X316513D02*
D03*
X311013D02*
D03*
X305513Y80961D02*
D03*
Y88961D02*
D03*
X299513Y80961D02*
D03*
Y88961D02*
D03*
X326513Y95461D02*
D03*
X321513D02*
D03*
X316513D02*
D03*
X311013D02*
D03*
X305513D02*
D03*
X299596Y95459D02*
D03*
X326096Y102459D02*
D03*
X321096D02*
D03*
X316096D02*
D03*
X311096D02*
D03*
X305596D02*
D03*
X299596D02*
D03*
X326000Y109500D02*
D03*
X321000D02*
D03*
X315500D02*
D03*
X310500D02*
D03*
X305000D02*
D03*
X299500D02*
D03*
X327000Y136500D02*
D03*
X322000D02*
D03*
X316500D02*
D03*
X311000D02*
D03*
X327000Y144500D02*
D03*
X321500D02*
D03*
X316500D02*
D03*
X311000D02*
D03*
X305500Y136500D02*
D03*
Y144500D02*
D03*
X299500Y136500D02*
D03*
Y144500D02*
D03*
X326500Y151000D02*
D03*
X321500D02*
D03*
X316500D02*
D03*
X311000D02*
D03*
X305500D02*
D03*
X299582Y150998D02*
D03*
X326082Y157998D02*
D03*
X321082D02*
D03*
X316082D02*
D03*
X311082D02*
D03*
X305582D02*
D03*
X299582D02*
D03*
X325987Y165039D02*
D03*
X320987D02*
D03*
X315487D02*
D03*
X310487D02*
D03*
X304987D02*
D03*
X299487D02*
D03*
X327000Y189000D02*
D03*
X322000D02*
D03*
X316500D02*
D03*
X311000D02*
D03*
X327000Y197000D02*
D03*
X321500D02*
D03*
X316500D02*
D03*
X311000D02*
D03*
X305500Y189000D02*
D03*
Y197000D02*
D03*
X299500Y189000D02*
D03*
Y197000D02*
D03*
X326500Y203500D02*
D03*
X321500D02*
D03*
X316500D02*
D03*
X311000D02*
D03*
X305500D02*
D03*
X299582Y203498D02*
D03*
X326082Y210498D02*
D03*
X321082D02*
D03*
X316082D02*
D03*
X311082D02*
D03*
X305582D02*
D03*
X299582D02*
D03*
X325987Y217539D02*
D03*
X320987D02*
D03*
X315487D02*
D03*
X310487D02*
D03*
X304987D02*
D03*
X299487D02*
D03*
X493500Y220500D02*
D03*
X499000D02*
D03*
X504500D02*
D03*
X509500D02*
D03*
X515000D02*
D03*
X520000D02*
D03*
X493596Y213459D02*
D03*
X499596D02*
D03*
X505096D02*
D03*
X510096D02*
D03*
X515096D02*
D03*
X520096D02*
D03*
X493596Y206459D02*
D03*
X499513Y206461D02*
D03*
X505013D02*
D03*
X510513D02*
D03*
X515513D02*
D03*
X520513D02*
D03*
X493513Y199961D02*
D03*
Y191961D02*
D03*
X499513Y199961D02*
D03*
Y191961D02*
D03*
X505013Y199961D02*
D03*
X510513D02*
D03*
X515513D02*
D03*
X521013D02*
D03*
X505013Y191961D02*
D03*
X510513D02*
D03*
X516013D02*
D03*
X521013D02*
D03*
X492500Y108500D02*
D03*
X498000D02*
D03*
X503500D02*
D03*
X508500D02*
D03*
X514000D02*
D03*
X519000D02*
D03*
X492596Y101459D02*
D03*
X498596D02*
D03*
X504096D02*
D03*
X509096D02*
D03*
X514096D02*
D03*
X519096D02*
D03*
X492596Y94459D02*
D03*
X498513Y94461D02*
D03*
X504013D02*
D03*
X509513D02*
D03*
X514513D02*
D03*
X519513D02*
D03*
X492513Y87961D02*
D03*
Y79961D02*
D03*
X498513Y87961D02*
D03*
Y79961D02*
D03*
X504013Y87961D02*
D03*
X509513D02*
D03*
X514513D02*
D03*
X520013D02*
D03*
X504013Y79961D02*
D03*
X509513D02*
D03*
X515013D02*
D03*
X520013D02*
D03*
D36*
X281000Y241000D02*
D03*
X320173D02*
D03*
X410000Y36000D02*
D03*
X370827D02*
D03*
X364000Y216500D02*
D03*
X374000D02*
D03*
X404000D02*
D03*
X414000D02*
D03*
X424000D02*
D03*
X361000Y120000D02*
D03*
X371000D02*
D03*
X401000D02*
D03*
X411000D02*
D03*
X421000D02*
D03*
X173500Y44000D02*
D03*
X183500D02*
D03*
X193500D02*
D03*
X203500D02*
D03*
X213500D02*
D03*
X223500D02*
D03*
X163500Y119000D02*
D03*
X173500D02*
D03*
X203500D02*
D03*
X213500D02*
D03*
X223500D02*
D03*
X164500Y216000D02*
D03*
X174500D02*
D03*
X204500D02*
D03*
X214500D02*
D03*
X224500D02*
D03*
D37*
X69500Y155370D02*
D03*
Y116000D02*
D03*
M02*
