M48
;Layer_Color=9474304
;FILE_FORMAT=2:5
INCH,LZ
;TYPE=PLATED
T1F00S00C0.01575
T2F00S00C0.02800
T3F00S00C0.03000
T4F00S00C0.03937
T5F00S00C0.05906
T6F00S00C0.09843
%
T01
X0300013Y0029461
X0306013
X0311513
X0317013
X0322513
X0327513
Y0037461
X0322013
X0317013
X0311513
X0306013
X0300013
X0300096Y0043959
X0306013Y0043961
X0311513
X0317013
X0322013
X0327013
X0326596Y0050959
X0321596
X0316596
X0311596
X0306096
X0300096
X03Y0058
X03055
X0311
X0316
X03215
X03265
X0327013Y0080961
X0322013
X0316513
X0311013
X0305513
X0299513
Y0088961
X0305513
X0311013
X0316513
X0321513
X0327013
X0326513Y0095461
X0321513
X0316513
X0311013
X0305513
X0299596Y0095459
Y0102459
X0305596
X0311096
X0316096
X0321096
X0326096
X0326Y01095
X0321
X03155
X03105
X0305
X02995
Y01365
X03055
X0311
X03165
X0322
X0327
Y01445
X03215
X03165
X0311
X03055
X02995
X0299582Y0150998
X03055Y0151
X0311
X03165
X03215
X03265
X0493596Y0153959
X0499513Y0153961
X0505013
X0510513
X0515513
X0520513
X0521013Y0147461
X0515513
X0510513
X0505013
X0499513
X0493513
Y0139461
X0499513
X0505013
X0510513
X0516013
X0521013
X0519Y01085
X0514
X05085
X05035
X0498
X04925
X0492596Y0101459
X0498596
X0504096
X0509096
X0514096
X0519096
X0519513Y0094461
X0514513
X0509513
X0504013
X0498513
X0492596Y0094459
X0492513Y0087961
X0498513
X0504013
X0509513
X0514513
X0520013
Y0079961
X0515013
X0509513
X0504013
X0498513
X0492513
X04925Y0056
X0498
X05035
X05085
X0514
X0519
X0519096Y0048959
X0514096
X0509096
X0504096
X0498596
X0492596
Y0041959
X0498513Y0041961
X0504013
X0509513
X0514513
X0519513
X0520013Y0035461
X0514513
X0509513
X0504013
X0498513
X0492513
Y0027461
X0498513
X0504013
X0509513
X0515013
X0520013
X0520096Y0160959
X0515096
X0510096
X0505096
X0499596
X0493596
X04935Y0168
X0499
X05045
X05095
X0515
X052
X0521013Y0191961
X0516013
X0510513
X0505013
X0499513
X0493513
Y0199961
X0499513
X0505013
X0510513
X0515513
X0521013
X0520513Y0206461
X0515513
X0510513
X0505013
X0499513
X0493596Y0206459
Y0213459
X0499596
X0505096
X0510096
X0515096
X0520096
X052Y02205
X0515
X05095
X05045
X0499
X04935
X0325987Y0217539
X0320987
X0315487
X0310487
X0304987
X0299487
X0299582Y0210498
X0305582
X0311082
X0316082
X0321082
X0326082
X03265Y02035
X03215
X03165
X0311
X03055
X0299582Y0203498
X02995Y0197
X03055
X0311
X03165
X03215
X0327
Y0189
X0322
X03165
X0311
X03055
X02995
X0299487Y0165039
X0304987
X0310487
X0315487
X0320987
X0325987
X0326082Y0157998
X0321082
X0316082
X0311082
X0305582
X0299582
T02
X0192Y0153
X0328955Y01205
X03525Y00705
X02805Y00045
X0271
X0263
X02545Y0004
X04625Y00215
X0468
X04735
X04785
X04665Y0036
X0467Y00745
X04635Y01315
X04655Y01865
X04705Y01825
X0476Y0182
X0482
X039Y01845
Y01925
X0354945Y0174802
X03495Y0212
X0273Y0182
T03
X01735Y0044
X01835
X01935
X02035
Y0119
X01735
X01635
X02135
X02235
Y0044
X02135
X0361Y012
X0371
X0401
X0411
X0421
X041Y0036
X0370827
X0374Y02165
X0404
X0414
X0424
X0364
X0320173Y0241
X0281
X02245Y0216
X02145
X02045
X01745
X01645
T04
X0135Y0043
X0146
T05
X00695Y0116
Y015537
T06
X0012457Y0010905
X00555Y0037
X00815Y00365
X03695Y00105
X03885
Y001
X0533457Y0011405
X0531457Y0253905
X03445Y01985
Y01855
X0082Y0228
X00535Y02275
X0010957Y0255405
M30
