G04*
G04 #@! TF.GenerationSoftware,Altium Limited,Altium Designer,21.1.1 (26)*
G04*
G04 Layer_Physical_Order=2*
G04 Layer_Color=16711680*
%FSLAX25Y25*%
%MOIN*%
G70*
G04*
G04 #@! TF.SameCoordinates,EB652CFF-68FA-4F81-8967-BD5122A89D0C*
G04*
G04*
G04 #@! TF.FilePolarity,Positive*
G04*
G01*
G75*
%ADD19C,0.05000*%
%ADD34C,0.02500*%
%ADD35C,0.03937*%
%ADD36C,0.06000*%
%ADD37C,0.11811*%
%ADD38C,0.15748*%
%ADD39C,0.23622*%
%ADD40C,0.05000*%
%ADD41C,0.07874*%
%ADD42C,0.19685*%
G36*
X418000Y219000D02*
Y200500D01*
X484500D01*
Y179500D01*
X469030D01*
Y186500D01*
X468910Y187414D01*
X468557Y188265D01*
X467996Y188996D01*
X467265Y189557D01*
X466414Y189910D01*
X465500Y190030D01*
X464586Y189910D01*
X463735Y189557D01*
X463004Y188996D01*
X462443Y188265D01*
X462090Y187414D01*
X461970Y186500D01*
Y179500D01*
X387500D01*
X386000Y181000D01*
X386500Y199500D01*
X408000D01*
X410500Y202000D01*
Y219500D01*
X417500D01*
X418000Y219000D01*
D02*
G37*
G36*
X543000Y0D02*
X489500D01*
X488500Y1000D01*
Y240000D01*
X381000D01*
X357000Y264000D01*
X159000D01*
Y256500D01*
X120500Y218000D01*
Y141000D01*
X0D01*
Y267000D01*
X543000D01*
Y0D01*
D02*
G37*
G36*
X337500Y22000D02*
X410500D01*
X424500Y36000D01*
X462970D01*
X463090Y35086D01*
X463443Y34235D01*
X464004Y33504D01*
X464735Y32943D01*
X465586Y32590D01*
X466500Y32470D01*
X467414Y32590D01*
X468265Y32943D01*
X468996Y33504D01*
X469557Y34235D01*
X469910Y35086D01*
X470030Y36000D01*
X484500D01*
Y500D01*
X484538Y462D01*
X484347Y0D01*
X293000D01*
Y110256D01*
X298244Y115500D01*
X337500D01*
Y22000D01*
D02*
G37*
G36*
X122000Y114000D02*
Y26000D01*
X234000D01*
X244500Y36500D01*
X285500D01*
Y0D01*
X0D01*
Y125000D01*
X1000Y126000D01*
X110000D01*
X122000Y114000D01*
D02*
G37*
D19*
X167429Y260000D02*
X354500D01*
X364000Y250500D01*
X164500Y257071D02*
X167429Y260000D01*
X164500Y120271D02*
Y257071D01*
X178500Y254000D02*
X338571D01*
X344036Y217464D02*
X349500Y212000D01*
X344036Y217464D02*
Y248535D01*
X338571Y254000D02*
X344036Y248535D01*
X174500Y250000D02*
X178500Y254000D01*
X174500Y216000D02*
Y250000D01*
X364000Y216500D02*
Y250500D01*
X281000Y190000D02*
Y241000D01*
X273000Y182000D02*
X281000Y190000D01*
X465500Y133500D02*
Y186500D01*
X463500Y131500D02*
X465500Y133500D01*
X466500Y36000D02*
Y74000D01*
X467000Y74500D01*
X457500Y84000D02*
X467000Y74500D01*
X432000Y84000D02*
X457500D01*
X411000Y105000D02*
Y120000D01*
Y105000D02*
X432000Y84000D01*
X174500Y120271D02*
Y216000D01*
X173500Y119271D02*
X174500Y120271D01*
X173500Y119000D02*
Y119271D01*
X163500D02*
X164500Y120271D01*
X163500Y119000D02*
Y119271D01*
X374000Y123271D02*
Y216500D01*
X371000Y120271D02*
X374000Y123271D01*
X371000Y120000D02*
Y120271D01*
X364000Y123271D02*
Y216500D01*
X361000Y120271D02*
X364000Y123271D01*
X361000Y120000D02*
Y120271D01*
D34*
X192000Y153000D02*
X213802Y174802D01*
X354945D01*
X213500Y44000D02*
X295000Y125500D01*
X333035D01*
X342000Y116535D01*
X300000Y120500D02*
X328955D01*
X223500Y44000D02*
X300000Y120500D01*
X342000Y81000D02*
Y116535D01*
Y81000D02*
X352500Y70500D01*
D35*
X520013Y27461D02*
D03*
X515013D02*
D03*
X509513D02*
D03*
X504013D02*
D03*
X520013Y35461D02*
D03*
X514513D02*
D03*
X509513D02*
D03*
X504013D02*
D03*
X498513Y27461D02*
D03*
Y35461D02*
D03*
X492513Y27461D02*
D03*
Y35461D02*
D03*
X519513Y41961D02*
D03*
X514513D02*
D03*
X509513D02*
D03*
X504013D02*
D03*
X498513D02*
D03*
X492596Y41959D02*
D03*
X519096Y48959D02*
D03*
X514096D02*
D03*
X509096D02*
D03*
X504096D02*
D03*
X498596D02*
D03*
X492596D02*
D03*
X519000Y56000D02*
D03*
X514000D02*
D03*
X508500D02*
D03*
X503500D02*
D03*
X498000D02*
D03*
X492500D02*
D03*
X521013Y139461D02*
D03*
X516013D02*
D03*
X510513D02*
D03*
X505013D02*
D03*
X521013Y147461D02*
D03*
X515513D02*
D03*
X510513D02*
D03*
X505013D02*
D03*
X499513Y139461D02*
D03*
Y147461D02*
D03*
X493513Y139461D02*
D03*
Y147461D02*
D03*
X520513Y153961D02*
D03*
X515513D02*
D03*
X510513D02*
D03*
X505013D02*
D03*
X499513D02*
D03*
X493596Y153959D02*
D03*
X520096Y160959D02*
D03*
X515096D02*
D03*
X510096D02*
D03*
X505096D02*
D03*
X499596D02*
D03*
X493596D02*
D03*
X520000Y168000D02*
D03*
X515000D02*
D03*
X509500D02*
D03*
X504500D02*
D03*
X499000D02*
D03*
X493500D02*
D03*
X327513Y29461D02*
D03*
X322513D02*
D03*
X317013D02*
D03*
X311513D02*
D03*
X327513Y37461D02*
D03*
X322013D02*
D03*
X317013D02*
D03*
X311513D02*
D03*
X306013Y29461D02*
D03*
Y37461D02*
D03*
X300013Y29461D02*
D03*
Y37461D02*
D03*
X327013Y43961D02*
D03*
X322013D02*
D03*
X317013D02*
D03*
X311513D02*
D03*
X306013D02*
D03*
X300096Y43959D02*
D03*
X326596Y50959D02*
D03*
X321596D02*
D03*
X316596D02*
D03*
X311596D02*
D03*
X306096D02*
D03*
X300096D02*
D03*
X326500Y58000D02*
D03*
X321500D02*
D03*
X316000D02*
D03*
X311000D02*
D03*
X305500D02*
D03*
X300000D02*
D03*
X327013Y80961D02*
D03*
X322013D02*
D03*
X316513D02*
D03*
X311013D02*
D03*
X327013Y88961D02*
D03*
X321513D02*
D03*
X316513D02*
D03*
X311013D02*
D03*
X305513Y80961D02*
D03*
Y88961D02*
D03*
X299513Y80961D02*
D03*
Y88961D02*
D03*
X326513Y95461D02*
D03*
X321513D02*
D03*
X316513D02*
D03*
X311013D02*
D03*
X305513D02*
D03*
X299596Y95459D02*
D03*
X326096Y102459D02*
D03*
X321096D02*
D03*
X316096D02*
D03*
X311096D02*
D03*
X305596D02*
D03*
X299596D02*
D03*
X326000Y109500D02*
D03*
X321000D02*
D03*
X315500D02*
D03*
X310500D02*
D03*
X305000D02*
D03*
X299500D02*
D03*
X327000Y136500D02*
D03*
X322000D02*
D03*
X316500D02*
D03*
X311000D02*
D03*
X327000Y144500D02*
D03*
X321500D02*
D03*
X316500D02*
D03*
X311000D02*
D03*
X305500Y136500D02*
D03*
Y144500D02*
D03*
X299500Y136500D02*
D03*
Y144500D02*
D03*
X326500Y151000D02*
D03*
X321500D02*
D03*
X316500D02*
D03*
X311000D02*
D03*
X305500D02*
D03*
X299582Y150998D02*
D03*
X326082Y157998D02*
D03*
X321082D02*
D03*
X316082D02*
D03*
X311082D02*
D03*
X305582D02*
D03*
X299582D02*
D03*
X325987Y165039D02*
D03*
X320987D02*
D03*
X315487D02*
D03*
X310487D02*
D03*
X304987D02*
D03*
X299487D02*
D03*
X327000Y189000D02*
D03*
X322000D02*
D03*
X316500D02*
D03*
X311000D02*
D03*
X327000Y197000D02*
D03*
X321500D02*
D03*
X316500D02*
D03*
X311000D02*
D03*
X305500Y189000D02*
D03*
Y197000D02*
D03*
X299500Y189000D02*
D03*
Y197000D02*
D03*
X326500Y203500D02*
D03*
X321500D02*
D03*
X316500D02*
D03*
X311000D02*
D03*
X305500D02*
D03*
X299582Y203498D02*
D03*
X326082Y210498D02*
D03*
X321082D02*
D03*
X316082D02*
D03*
X311082D02*
D03*
X305582D02*
D03*
X299582D02*
D03*
X325987Y217539D02*
D03*
X320987D02*
D03*
X315487D02*
D03*
X310487D02*
D03*
X304987D02*
D03*
X299487D02*
D03*
X493500Y220500D02*
D03*
X499000D02*
D03*
X504500D02*
D03*
X509500D02*
D03*
X515000D02*
D03*
X520000D02*
D03*
X493596Y213459D02*
D03*
X499596D02*
D03*
X505096D02*
D03*
X510096D02*
D03*
X515096D02*
D03*
X520096D02*
D03*
X493596Y206459D02*
D03*
X499513Y206461D02*
D03*
X505013D02*
D03*
X510513D02*
D03*
X515513D02*
D03*
X520513D02*
D03*
X493513Y199961D02*
D03*
Y191961D02*
D03*
X499513Y199961D02*
D03*
Y191961D02*
D03*
X505013Y199961D02*
D03*
X510513D02*
D03*
X515513D02*
D03*
X521013D02*
D03*
X505013Y191961D02*
D03*
X510513D02*
D03*
X516013D02*
D03*
X521013D02*
D03*
X492500Y108500D02*
D03*
X498000D02*
D03*
X503500D02*
D03*
X508500D02*
D03*
X514000D02*
D03*
X519000D02*
D03*
X492596Y101459D02*
D03*
X498596D02*
D03*
X504096D02*
D03*
X509096D02*
D03*
X514096D02*
D03*
X519096D02*
D03*
X492596Y94459D02*
D03*
X498513Y94461D02*
D03*
X504013D02*
D03*
X509513D02*
D03*
X514513D02*
D03*
X519513D02*
D03*
X492513Y87961D02*
D03*
Y79961D02*
D03*
X498513Y87961D02*
D03*
Y79961D02*
D03*
X504013Y87961D02*
D03*
X509513D02*
D03*
X514513D02*
D03*
X520013D02*
D03*
X504013Y79961D02*
D03*
X509513D02*
D03*
X515013D02*
D03*
X520013D02*
D03*
D36*
X281000Y241000D02*
D03*
X320173D02*
D03*
X410000Y36000D02*
D03*
X370827D02*
D03*
X364000Y216500D02*
D03*
X374000D02*
D03*
X404000D02*
D03*
X414000D02*
D03*
X424000D02*
D03*
X361000Y120000D02*
D03*
X371000D02*
D03*
X401000D02*
D03*
X411000D02*
D03*
X421000D02*
D03*
X173500Y44000D02*
D03*
X183500D02*
D03*
X193500D02*
D03*
X203500D02*
D03*
X213500D02*
D03*
X223500D02*
D03*
X163500Y119000D02*
D03*
X173500D02*
D03*
X203500D02*
D03*
X213500D02*
D03*
X223500D02*
D03*
X164500Y216000D02*
D03*
X174500D02*
D03*
X204500D02*
D03*
X214500D02*
D03*
X224500D02*
D03*
D37*
X69500Y155370D02*
D03*
Y116000D02*
D03*
D38*
X344500Y185500D02*
D03*
X533457Y11405D02*
D03*
X531457Y253905D02*
D03*
X12457Y10905D02*
D03*
X10957Y255405D02*
D03*
X344500Y198500D02*
D03*
X388500Y10000D02*
D03*
D39*
X82000Y228000D02*
D03*
X53500Y227500D02*
D03*
X81500Y36500D02*
D03*
X55500Y37000D02*
D03*
D40*
X254500Y4000D02*
D03*
X263000Y4500D02*
D03*
X271000D02*
D03*
X280500D02*
D03*
X482000Y182000D02*
D03*
X476000D02*
D03*
X470500Y182500D02*
D03*
X390000Y184500D02*
D03*
Y192500D02*
D03*
X354945Y174802D02*
D03*
X192000Y153000D02*
D03*
X328955Y120500D02*
D03*
X352500Y70500D02*
D03*
X349500Y212000D02*
D03*
X273000Y182000D02*
D03*
X463500Y131500D02*
D03*
X466500Y36000D02*
D03*
X478500Y21500D02*
D03*
X473500D02*
D03*
X468000D02*
D03*
X462500D02*
D03*
X467000Y74500D02*
D03*
X465500Y186500D02*
D03*
D41*
X135000Y43000D02*
D03*
X146000D02*
D03*
D42*
X388500Y10500D02*
D03*
X369500D02*
D03*
M02*
