G04*
G04 #@! TF.GenerationSoftware,Altium Limited,Altium Designer,21.1.1 (26)*
G04*
G04 Layer_Color=2752767*
%FSLAX25Y25*%
%MOIN*%
G70*
G04*
G04 #@! TF.SameCoordinates,EB652CFF-68FA-4F81-8967-BD5122A89D0C*
G04*
G04*
G04 #@! TF.FilePolarity,Positive*
G04*
G01*
G75*
%ADD43C,0.00200*%
%ADD44C,0.00267*%
D43*
X519213Y26661D02*
Y28261D01*
X520813D01*
Y26661D01*
X519213D01*
X514213D02*
Y28261D01*
X515813D01*
Y26661D01*
X514213D01*
X508713D02*
Y28261D01*
X510313D01*
Y26661D01*
X508713D01*
X503213D02*
Y28261D01*
X504813D01*
Y26661D01*
X503213D01*
X519213Y34661D02*
Y36261D01*
X520813D01*
Y34661D01*
X519213D01*
X513713D02*
Y36261D01*
X515313D01*
Y34661D01*
X513713D01*
X508713D02*
Y36261D01*
X510313D01*
Y34661D01*
X508713D01*
X503213D02*
Y36261D01*
X504813D01*
Y34661D01*
X503213D01*
X497713Y26661D02*
Y28261D01*
X499313D01*
Y26661D01*
X497713D01*
Y34661D02*
Y36261D01*
X499313D01*
Y34661D01*
X497713D01*
X491713Y26661D02*
Y28261D01*
X493313D01*
Y26661D01*
X491713D01*
Y34661D02*
Y36261D01*
X493313D01*
Y34661D01*
X491713D01*
X518713Y41161D02*
Y42761D01*
X520313D01*
Y41161D01*
X518713D01*
X513713D02*
Y42761D01*
X515313D01*
Y41161D01*
X513713D01*
X508713D02*
Y42761D01*
X510313D01*
Y41161D01*
X508713D01*
X503213D02*
Y42761D01*
X504813D01*
Y41161D01*
X503213D01*
X497713D02*
Y42761D01*
X499313D01*
Y41161D01*
X497713D01*
X491796Y41159D02*
Y42759D01*
X493396D01*
Y41159D01*
X491796D01*
X518296Y48159D02*
Y49759D01*
X519896D01*
Y48159D01*
X518296D01*
X513296D02*
Y49759D01*
X514896D01*
Y48159D01*
X513296D01*
X508296D02*
Y49759D01*
X509896D01*
Y48159D01*
X508296D01*
X503296D02*
Y49759D01*
X504896D01*
Y48159D01*
X503296D01*
X497796D02*
Y49759D01*
X499396D01*
Y48159D01*
X497796D01*
X491796D02*
Y49759D01*
X493396D01*
Y48159D01*
X491796D01*
X518200Y55200D02*
Y56800D01*
X519800D01*
Y55200D01*
X518200D01*
X513200D02*
Y56800D01*
X514800D01*
Y55200D01*
X513200D01*
X507700D02*
Y56800D01*
X509300D01*
Y55200D01*
X507700D01*
X502700D02*
Y56800D01*
X504300D01*
Y55200D01*
X502700D01*
X497200D02*
Y56800D01*
X498800D01*
Y55200D01*
X497200D01*
X491700D02*
Y56800D01*
X493300D01*
Y55200D01*
X491700D01*
X520213Y138661D02*
Y140261D01*
X521813D01*
Y138661D01*
X520213D01*
X515213D02*
Y140261D01*
X516813D01*
Y138661D01*
X515213D01*
X509713D02*
Y140261D01*
X511313D01*
Y138661D01*
X509713D01*
X504213D02*
Y140261D01*
X505813D01*
Y138661D01*
X504213D01*
X520213Y146661D02*
Y148261D01*
X521813D01*
Y146661D01*
X520213D01*
X514713D02*
Y148261D01*
X516313D01*
Y146661D01*
X514713D01*
X509713D02*
Y148261D01*
X511313D01*
Y146661D01*
X509713D01*
X504213D02*
Y148261D01*
X505813D01*
Y146661D01*
X504213D01*
X498713Y138661D02*
Y140261D01*
X500313D01*
Y138661D01*
X498713D01*
Y146661D02*
Y148261D01*
X500313D01*
Y146661D01*
X498713D01*
X492713Y138661D02*
Y140261D01*
X494313D01*
Y138661D01*
X492713D01*
Y146661D02*
Y148261D01*
X494313D01*
Y146661D01*
X492713D01*
X519713Y153161D02*
Y154761D01*
X521313D01*
Y153161D01*
X519713D01*
X514713D02*
Y154761D01*
X516313D01*
Y153161D01*
X514713D01*
X509713D02*
Y154761D01*
X511313D01*
Y153161D01*
X509713D01*
X504213D02*
Y154761D01*
X505813D01*
Y153161D01*
X504213D01*
X498713D02*
Y154761D01*
X500313D01*
Y153161D01*
X498713D01*
X492796Y153159D02*
Y154759D01*
X494396D01*
Y153159D01*
X492796D01*
X519296Y160159D02*
Y161759D01*
X520896D01*
Y160159D01*
X519296D01*
X514296D02*
Y161759D01*
X515896D01*
Y160159D01*
X514296D01*
X509296D02*
Y161759D01*
X510896D01*
Y160159D01*
X509296D01*
X504296D02*
Y161759D01*
X505896D01*
Y160159D01*
X504296D01*
X498796D02*
Y161759D01*
X500396D01*
Y160159D01*
X498796D01*
X492796D02*
Y161759D01*
X494396D01*
Y160159D01*
X492796D01*
X519200Y167200D02*
Y168800D01*
X520800D01*
Y167200D01*
X519200D01*
X514200D02*
Y168800D01*
X515800D01*
Y167200D01*
X514200D01*
X508700D02*
Y168800D01*
X510300D01*
Y167200D01*
X508700D01*
X503700D02*
Y168800D01*
X505300D01*
Y167200D01*
X503700D01*
X498200D02*
Y168800D01*
X499800D01*
Y167200D01*
X498200D01*
X492700D02*
Y168800D01*
X494300D01*
Y167200D01*
X492700D01*
X326713Y28661D02*
Y30261D01*
X328313D01*
Y28661D01*
X326713D01*
X321713D02*
Y30261D01*
X323313D01*
Y28661D01*
X321713D01*
X316213D02*
Y30261D01*
X317813D01*
Y28661D01*
X316213D01*
X310713D02*
Y30261D01*
X312313D01*
Y28661D01*
X310713D01*
X326713Y36661D02*
Y38261D01*
X328313D01*
Y36661D01*
X326713D01*
X321213D02*
Y38261D01*
X322813D01*
Y36661D01*
X321213D01*
X316213D02*
Y38261D01*
X317813D01*
Y36661D01*
X316213D01*
X310713D02*
Y38261D01*
X312313D01*
Y36661D01*
X310713D01*
X305213Y28661D02*
Y30261D01*
X306813D01*
Y28661D01*
X305213D01*
Y36661D02*
Y38261D01*
X306813D01*
Y36661D01*
X305213D01*
X299213Y28661D02*
Y30261D01*
X300813D01*
Y28661D01*
X299213D01*
Y36661D02*
Y38261D01*
X300813D01*
Y36661D01*
X299213D01*
X326213Y43161D02*
Y44761D01*
X327813D01*
Y43161D01*
X326213D01*
X321213D02*
Y44761D01*
X322813D01*
Y43161D01*
X321213D01*
X316213D02*
Y44761D01*
X317813D01*
Y43161D01*
X316213D01*
X310713D02*
Y44761D01*
X312313D01*
Y43161D01*
X310713D01*
X305213D02*
Y44761D01*
X306813D01*
Y43161D01*
X305213D01*
X299296Y43159D02*
Y44759D01*
X300896D01*
Y43159D01*
X299296D01*
X325796Y50159D02*
Y51759D01*
X327396D01*
Y50159D01*
X325796D01*
X320796D02*
Y51759D01*
X322396D01*
Y50159D01*
X320796D01*
X315796D02*
Y51759D01*
X317396D01*
Y50159D01*
X315796D01*
X310796D02*
Y51759D01*
X312396D01*
Y50159D01*
X310796D01*
X305296D02*
Y51759D01*
X306896D01*
Y50159D01*
X305296D01*
X299296D02*
Y51759D01*
X300896D01*
Y50159D01*
X299296D01*
X325700Y57200D02*
Y58800D01*
X327300D01*
Y57200D01*
X325700D01*
X320700D02*
Y58800D01*
X322300D01*
Y57200D01*
X320700D01*
X315200D02*
Y58800D01*
X316800D01*
Y57200D01*
X315200D01*
X310200D02*
Y58800D01*
X311800D01*
Y57200D01*
X310200D01*
X304700D02*
Y58800D01*
X306300D01*
Y57200D01*
X304700D01*
X299200D02*
Y58800D01*
X300800D01*
Y57200D01*
X299200D01*
X326213Y80161D02*
Y81761D01*
X327813D01*
Y80161D01*
X326213D01*
X321213D02*
Y81761D01*
X322813D01*
Y80161D01*
X321213D01*
X315713D02*
Y81761D01*
X317313D01*
Y80161D01*
X315713D01*
X310213D02*
Y81761D01*
X311813D01*
Y80161D01*
X310213D01*
X326213Y88161D02*
Y89761D01*
X327813D01*
Y88161D01*
X326213D01*
X320713D02*
Y89761D01*
X322313D01*
Y88161D01*
X320713D01*
X315713D02*
Y89761D01*
X317313D01*
Y88161D01*
X315713D01*
X310213D02*
Y89761D01*
X311813D01*
Y88161D01*
X310213D01*
X304713Y80161D02*
Y81761D01*
X306313D01*
Y80161D01*
X304713D01*
Y88161D02*
Y89761D01*
X306313D01*
Y88161D01*
X304713D01*
X298713Y80161D02*
Y81761D01*
X300313D01*
Y80161D01*
X298713D01*
Y88161D02*
Y89761D01*
X300313D01*
Y88161D01*
X298713D01*
X325713Y94661D02*
Y96261D01*
X327313D01*
Y94661D01*
X325713D01*
X320713D02*
Y96261D01*
X322313D01*
Y94661D01*
X320713D01*
X315713D02*
Y96261D01*
X317313D01*
Y94661D01*
X315713D01*
X310213D02*
Y96261D01*
X311813D01*
Y94661D01*
X310213D01*
X304713D02*
Y96261D01*
X306313D01*
Y94661D01*
X304713D01*
X298796Y94659D02*
Y96259D01*
X300396D01*
Y94659D01*
X298796D01*
X325296Y101659D02*
Y103259D01*
X326896D01*
Y101659D01*
X325296D01*
X320296D02*
Y103259D01*
X321896D01*
Y101659D01*
X320296D01*
X315296D02*
Y103259D01*
X316896D01*
Y101659D01*
X315296D01*
X310296D02*
Y103259D01*
X311896D01*
Y101659D01*
X310296D01*
X304796D02*
Y103259D01*
X306396D01*
Y101659D01*
X304796D01*
X298796D02*
Y103259D01*
X300396D01*
Y101659D01*
X298796D01*
X325200Y108700D02*
Y110300D01*
X326800D01*
Y108700D01*
X325200D01*
X320200D02*
Y110300D01*
X321800D01*
Y108700D01*
X320200D01*
X314700D02*
Y110300D01*
X316300D01*
Y108700D01*
X314700D01*
X309700D02*
Y110300D01*
X311300D01*
Y108700D01*
X309700D01*
X304200D02*
Y110300D01*
X305800D01*
Y108700D01*
X304200D01*
X298700D02*
Y110300D01*
X300300D01*
Y108700D01*
X298700D01*
X326200Y135700D02*
Y137300D01*
X327800D01*
Y135700D01*
X326200D01*
X321200D02*
Y137300D01*
X322800D01*
Y135700D01*
X321200D01*
X315700D02*
Y137300D01*
X317300D01*
Y135700D01*
X315700D01*
X310200D02*
Y137300D01*
X311800D01*
Y135700D01*
X310200D01*
X326200Y143700D02*
Y145300D01*
X327800D01*
Y143700D01*
X326200D01*
X320700D02*
Y145300D01*
X322300D01*
Y143700D01*
X320700D01*
X315700D02*
Y145300D01*
X317300D01*
Y143700D01*
X315700D01*
X310200D02*
Y145300D01*
X311800D01*
Y143700D01*
X310200D01*
X304700Y135700D02*
Y137300D01*
X306300D01*
Y135700D01*
X304700D01*
Y143700D02*
Y145300D01*
X306300D01*
Y143700D01*
X304700D01*
X298700Y135700D02*
Y137300D01*
X300300D01*
Y135700D01*
X298700D01*
Y143700D02*
Y145300D01*
X300300D01*
Y143700D01*
X298700D01*
X325700Y150200D02*
Y151800D01*
X327300D01*
Y150200D01*
X325700D01*
X320700D02*
Y151800D01*
X322300D01*
Y150200D01*
X320700D01*
X315700D02*
Y151800D01*
X317300D01*
Y150200D01*
X315700D01*
X310200D02*
Y151800D01*
X311800D01*
Y150200D01*
X310200D01*
X304700D02*
Y151800D01*
X306300D01*
Y150200D01*
X304700D01*
X298782Y150198D02*
Y151798D01*
X300382D01*
Y150198D01*
X298782D01*
X325282Y157198D02*
Y158798D01*
X326882D01*
Y157198D01*
X325282D01*
X320282D02*
Y158798D01*
X321882D01*
Y157198D01*
X320282D01*
X315282D02*
Y158798D01*
X316882D01*
Y157198D01*
X315282D01*
X310282D02*
Y158798D01*
X311882D01*
Y157198D01*
X310282D01*
X304782D02*
Y158798D01*
X306382D01*
Y157198D01*
X304782D01*
X298782D02*
Y158798D01*
X300382D01*
Y157198D01*
X298782D01*
X325187Y164239D02*
Y165839D01*
X326787D01*
Y164239D01*
X325187D01*
X320187D02*
Y165839D01*
X321787D01*
Y164239D01*
X320187D01*
X314687D02*
Y165839D01*
X316287D01*
Y164239D01*
X314687D01*
X309687D02*
Y165839D01*
X311287D01*
Y164239D01*
X309687D01*
X304187D02*
Y165839D01*
X305787D01*
Y164239D01*
X304187D01*
X298687D02*
Y165839D01*
X300287D01*
Y164239D01*
X298687D01*
X326200Y188200D02*
Y189800D01*
X327800D01*
Y188200D01*
X326200D01*
X321200D02*
Y189800D01*
X322800D01*
Y188200D01*
X321200D01*
X315700D02*
Y189800D01*
X317300D01*
Y188200D01*
X315700D01*
X310200D02*
Y189800D01*
X311800D01*
Y188200D01*
X310200D01*
X326200Y196200D02*
Y197800D01*
X327800D01*
Y196200D01*
X326200D01*
X320700D02*
Y197800D01*
X322300D01*
Y196200D01*
X320700D01*
X315700D02*
Y197800D01*
X317300D01*
Y196200D01*
X315700D01*
X310200D02*
Y197800D01*
X311800D01*
Y196200D01*
X310200D01*
X304700Y188200D02*
Y189800D01*
X306300D01*
Y188200D01*
X304700D01*
Y196200D02*
Y197800D01*
X306300D01*
Y196200D01*
X304700D01*
X298700Y188200D02*
Y189800D01*
X300300D01*
Y188200D01*
X298700D01*
Y196200D02*
Y197800D01*
X300300D01*
Y196200D01*
X298700D01*
X325700Y202700D02*
Y204300D01*
X327300D01*
Y202700D01*
X325700D01*
X320700D02*
Y204300D01*
X322300D01*
Y202700D01*
X320700D01*
X315700D02*
Y204300D01*
X317300D01*
Y202700D01*
X315700D01*
X310200D02*
Y204300D01*
X311800D01*
Y202700D01*
X310200D01*
X304700D02*
Y204300D01*
X306300D01*
Y202700D01*
X304700D01*
X298782Y202698D02*
Y204298D01*
X300382D01*
Y202698D01*
X298782D01*
X325282Y209698D02*
Y211298D01*
X326882D01*
Y209698D01*
X325282D01*
X320282D02*
Y211298D01*
X321882D01*
Y209698D01*
X320282D01*
X315282D02*
Y211298D01*
X316882D01*
Y209698D01*
X315282D01*
X310282D02*
Y211298D01*
X311882D01*
Y209698D01*
X310282D01*
X304782D02*
Y211298D01*
X306382D01*
Y209698D01*
X304782D01*
X298782D02*
Y211298D01*
X300382D01*
Y209698D01*
X298782D01*
X325187Y216739D02*
Y218339D01*
X326787D01*
Y216739D01*
X325187D01*
X320187D02*
Y218339D01*
X321787D01*
Y216739D01*
X320187D01*
X314687D02*
Y218339D01*
X316287D01*
Y216739D01*
X314687D01*
X309687D02*
Y218339D01*
X311287D01*
Y216739D01*
X309687D01*
X304187D02*
Y218339D01*
X305787D01*
Y216739D01*
X304187D01*
X298687D02*
Y218339D01*
X300287D01*
Y216739D01*
X298687D01*
X69500Y154570D02*
X68700Y156170D01*
X70300D01*
X69500Y154570D01*
Y115200D02*
X68700Y116800D01*
X70300D01*
X69500Y115200D01*
X492700Y219700D02*
Y221300D01*
X494300D01*
Y219700D01*
X492700D01*
X498200D02*
Y221300D01*
X499800D01*
Y219700D01*
X498200D01*
X503700D02*
Y221300D01*
X505300D01*
Y219700D01*
X503700D01*
X508700D02*
Y221300D01*
X510300D01*
Y219700D01*
X508700D01*
X514200D02*
Y221300D01*
X515800D01*
Y219700D01*
X514200D01*
X519200D02*
Y221300D01*
X520800D01*
Y219700D01*
X519200D01*
X492796Y212659D02*
Y214259D01*
X494396D01*
Y212659D01*
X492796D01*
X498796D02*
Y214259D01*
X500396D01*
Y212659D01*
X498796D01*
X504296D02*
Y214259D01*
X505896D01*
Y212659D01*
X504296D01*
X509296D02*
Y214259D01*
X510896D01*
Y212659D01*
X509296D01*
X514296D02*
Y214259D01*
X515896D01*
Y212659D01*
X514296D01*
X519296D02*
Y214259D01*
X520896D01*
Y212659D01*
X519296D01*
X492796Y205659D02*
Y207259D01*
X494396D01*
Y205659D01*
X492796D01*
X498713Y205661D02*
Y207261D01*
X500313D01*
Y205661D01*
X498713D01*
X504213D02*
Y207261D01*
X505813D01*
Y205661D01*
X504213D01*
X509713D02*
Y207261D01*
X511313D01*
Y205661D01*
X509713D01*
X514713D02*
Y207261D01*
X516313D01*
Y205661D01*
X514713D01*
X519713D02*
Y207261D01*
X521313D01*
Y205661D01*
X519713D01*
X492713Y199161D02*
Y200761D01*
X494313D01*
Y199161D01*
X492713D01*
Y191161D02*
Y192761D01*
X494313D01*
Y191161D01*
X492713D01*
X498713Y199161D02*
Y200761D01*
X500313D01*
Y199161D01*
X498713D01*
Y191161D02*
Y192761D01*
X500313D01*
Y191161D01*
X498713D01*
X504213Y199161D02*
Y200761D01*
X505813D01*
Y199161D01*
X504213D01*
X509713D02*
Y200761D01*
X511313D01*
Y199161D01*
X509713D01*
X514713D02*
Y200761D01*
X516313D01*
Y199161D01*
X514713D01*
X520213D02*
Y200761D01*
X521813D01*
Y199161D01*
X520213D01*
X504213Y191161D02*
Y192761D01*
X505813D01*
Y191161D01*
X504213D01*
X509713D02*
Y192761D01*
X511313D01*
Y191161D01*
X509713D01*
X515213D02*
Y192761D01*
X516813D01*
Y191161D01*
X515213D01*
X520213D02*
Y192761D01*
X521813D01*
Y191161D01*
X520213D01*
X491700Y107700D02*
Y109300D01*
X493300D01*
Y107700D01*
X491700D01*
X497200D02*
Y109300D01*
X498800D01*
Y107700D01*
X497200D01*
X502700D02*
Y109300D01*
X504300D01*
Y107700D01*
X502700D01*
X507700D02*
Y109300D01*
X509300D01*
Y107700D01*
X507700D01*
X513200D02*
Y109300D01*
X514800D01*
Y107700D01*
X513200D01*
X518200D02*
Y109300D01*
X519800D01*
Y107700D01*
X518200D01*
X491796Y100659D02*
Y102259D01*
X493396D01*
Y100659D01*
X491796D01*
X497796D02*
Y102259D01*
X499396D01*
Y100659D01*
X497796D01*
X503296D02*
Y102259D01*
X504896D01*
Y100659D01*
X503296D01*
X508296D02*
Y102259D01*
X509896D01*
Y100659D01*
X508296D01*
X513296D02*
Y102259D01*
X514896D01*
Y100659D01*
X513296D01*
X518296D02*
Y102259D01*
X519896D01*
Y100659D01*
X518296D01*
X491796Y93659D02*
Y95259D01*
X493396D01*
Y93659D01*
X491796D01*
X497713Y93661D02*
Y95261D01*
X499313D01*
Y93661D01*
X497713D01*
X503213D02*
Y95261D01*
X504813D01*
Y93661D01*
X503213D01*
X508713D02*
Y95261D01*
X510313D01*
Y93661D01*
X508713D01*
X513713D02*
Y95261D01*
X515313D01*
Y93661D01*
X513713D01*
X518713D02*
Y95261D01*
X520313D01*
Y93661D01*
X518713D01*
X491713Y87161D02*
Y88761D01*
X493313D01*
Y87161D01*
X491713D01*
Y79161D02*
Y80761D01*
X493313D01*
Y79161D01*
X491713D01*
X497713Y87161D02*
Y88761D01*
X499313D01*
Y87161D01*
X497713D01*
Y79161D02*
Y80761D01*
X499313D01*
Y79161D01*
X497713D01*
X503213Y87161D02*
Y88761D01*
X504813D01*
Y87161D01*
X503213D01*
X508713D02*
Y88761D01*
X510313D01*
Y87161D01*
X508713D01*
X513713D02*
Y88761D01*
X515313D01*
Y87161D01*
X513713D01*
X519213D02*
Y88761D01*
X520813D01*
Y87161D01*
X519213D01*
X503213Y79161D02*
Y80761D01*
X504813D01*
Y79161D01*
X503213D01*
X508713D02*
Y80761D01*
X510313D01*
Y79161D01*
X508713D01*
X514213D02*
Y80761D01*
X515813D01*
Y79161D01*
X514213D01*
X519213D02*
Y80761D01*
X520813D01*
Y79161D01*
X519213D01*
X344500Y184700D02*
X344900Y185100D01*
X345300D01*
X344900Y185500D01*
X345300Y185900D01*
X344900D01*
X344500Y186300D01*
X344100Y185900D01*
X343700D01*
X344100Y185500D01*
X343700Y185100D01*
X344100D01*
X344500Y184700D01*
X533457Y10605D02*
X533857Y11005D01*
X534257D01*
X533857Y11405D01*
X534257Y11805D01*
X533857D01*
X533457Y12205D01*
X533057Y11805D01*
X532657D01*
X533057Y11405D01*
X532657Y11005D01*
X533057D01*
X533457Y10605D01*
X531457Y253105D02*
X531857Y253505D01*
X532257D01*
X531857Y253905D01*
X532257Y254305D01*
X531857D01*
X531457Y254705D01*
X531057Y254305D01*
X530657D01*
X531057Y253905D01*
X530657Y253505D01*
X531057D01*
X531457Y253105D01*
X12457Y10105D02*
X12857Y10505D01*
X13257D01*
X12857Y10905D01*
X13257Y11305D01*
X12857D01*
X12457Y11705D01*
X12057Y11305D01*
X11657D01*
X12057Y10905D01*
X11657Y10505D01*
X12057D01*
X12457Y10105D01*
X10957Y254605D02*
X11357Y255005D01*
X11757D01*
X11357Y255405D01*
X11757Y255805D01*
X11357D01*
X10957Y256205D01*
X10557Y255805D01*
X10157D01*
X10557Y255405D01*
X10157Y255005D01*
X10557D01*
X10957Y254605D01*
X82000Y227200D02*
X82400Y227600D01*
X82800D01*
X82400Y228000D01*
X82800Y228400D01*
X82400D01*
X82000Y228800D01*
X81600Y228400D01*
X81200D01*
X81600Y228000D01*
X81200Y227600D01*
X81600D01*
X82000Y227200D01*
X53500Y226700D02*
X53900Y227100D01*
X54300D01*
X53900Y227500D01*
X54300Y227900D01*
X53900D01*
X53500Y228300D01*
X53100Y227900D01*
X52700D01*
X53100Y227500D01*
X52700Y227100D01*
X53100D01*
X53500Y226700D01*
X81500Y35700D02*
X81900Y36100D01*
X82300D01*
X81900Y36500D01*
X82300Y36900D01*
X81900D01*
X81500Y37300D01*
X81100Y36900D01*
X80700D01*
X81100Y36500D01*
X80700Y36100D01*
X81100D01*
X81500Y35700D01*
X55500Y36200D02*
X55900Y36600D01*
X56300D01*
X55900Y37000D01*
X56300Y37400D01*
X55900D01*
X55500Y37800D01*
X55100Y37400D01*
X54700D01*
X55100Y37000D01*
X54700Y36600D01*
X55100D01*
X55500Y36200D01*
X253700Y3200D02*
X254100Y4000D01*
X253700Y4800D01*
X254500Y4400D01*
X255300Y4800D01*
X254900Y4000D01*
X255300Y3200D01*
X254500Y3600D01*
X253700Y3200D01*
X262200Y3700D02*
X262600Y4500D01*
X262200Y5300D01*
X263000Y4900D01*
X263800Y5300D01*
X263400Y4500D01*
X263800Y3700D01*
X263000Y4100D01*
X262200Y3700D01*
X270200D02*
X270600Y4500D01*
X270200Y5300D01*
X271000Y4900D01*
X271800Y5300D01*
X271400Y4500D01*
X271800Y3700D01*
X271000Y4100D01*
X270200Y3700D01*
X279700D02*
X280100Y4500D01*
X279700Y5300D01*
X280500Y4900D01*
X281300Y5300D01*
X280900Y4500D01*
X281300Y3700D01*
X280500Y4100D01*
X279700Y3700D01*
X134600Y42600D02*
Y42200D01*
X135400D01*
Y42600D01*
X135800D01*
Y43400D01*
X135400D01*
Y43800D01*
X134600D01*
Y43400D01*
X134200D01*
Y42600D01*
X134600D01*
X145600D02*
Y42200D01*
X146400D01*
Y42600D01*
X146800D01*
Y43400D01*
X146400D01*
Y43800D01*
X145600D01*
Y43400D01*
X145200D01*
Y42600D01*
X145600D01*
X344500Y197700D02*
X344900Y198100D01*
X345300D01*
X344900Y198500D01*
X345300Y198900D01*
X344900D01*
X344500Y199300D01*
X344100Y198900D01*
X343700D01*
X344100Y198500D01*
X343700Y198100D01*
X344100D01*
X344500Y197700D01*
X481200Y181200D02*
X481600Y182000D01*
X481200Y182800D01*
X482000Y182400D01*
X482800Y182800D01*
X482400Y182000D01*
X482800Y181200D01*
X482000Y181600D01*
X481200Y181200D01*
X475200D02*
X475600Y182000D01*
X475200Y182800D01*
X476000Y182400D01*
X476800Y182800D01*
X476400Y182000D01*
X476800Y181200D01*
X476000Y181600D01*
X475200Y181200D01*
X469700Y181700D02*
X470100Y182500D01*
X469700Y183300D01*
X470500Y182900D01*
X471300Y183300D01*
X470900Y182500D01*
X471300Y181700D01*
X470500Y182100D01*
X469700Y181700D01*
X389200Y183700D02*
X389600Y184500D01*
X389200Y185300D01*
X390000Y184900D01*
X390800Y185300D01*
X390400Y184500D01*
X390800Y183700D01*
X390000Y184100D01*
X389200Y183700D01*
Y191700D02*
X389600Y192500D01*
X389200Y193300D01*
X390000Y192900D01*
X390800Y193300D01*
X390400Y192500D01*
X390800Y191700D01*
X390000Y192100D01*
X389200Y191700D01*
X388500Y9200D02*
X388900Y9600D01*
X389300D01*
X388900Y10000D01*
X389300Y10400D01*
X388900D01*
X388500Y10800D01*
X388100Y10400D01*
X387700D01*
X388100Y10000D01*
X387700Y9600D01*
X388100D01*
X388500Y9200D01*
X354145Y174002D02*
X354545Y174802D01*
X354145Y175602D01*
X354945Y175202D01*
X355745Y175602D01*
X355345Y174802D01*
X355745Y174002D01*
X354945Y174402D01*
X354145Y174002D01*
X191200Y152200D02*
X191600Y153000D01*
X191200Y153800D01*
X192000Y153400D01*
X192800Y153800D01*
X192400Y153000D01*
X192800Y152200D01*
X192000Y152600D01*
X191200Y152200D01*
X328155Y119700D02*
X328555Y120500D01*
X328155Y121300D01*
X328955Y120900D01*
X329755Y121300D01*
X329355Y120500D01*
X329755Y119700D01*
X328955Y120100D01*
X328155Y119700D01*
X351700Y69700D02*
X352100Y70500D01*
X351700Y71300D01*
X352500Y70900D01*
X353300Y71300D01*
X352900Y70500D01*
X353300Y69700D01*
X352500Y70100D01*
X351700Y69700D01*
X348700Y211200D02*
X349100Y212000D01*
X348700Y212800D01*
X349500Y212400D01*
X350300Y212800D01*
X349900Y212000D01*
X350300Y211200D01*
X349500Y211600D01*
X348700Y211200D01*
X272200Y181200D02*
X272600Y182000D01*
X272200Y182800D01*
X273000Y182400D01*
X273800Y182800D01*
X273400Y182000D01*
X273800Y181200D01*
X273000Y181600D01*
X272200Y181200D01*
X462700Y130700D02*
X463100Y131500D01*
X462700Y132300D01*
X463500Y131900D01*
X464300Y132300D01*
X463900Y131500D01*
X464300Y130700D01*
X463500Y131100D01*
X462700Y130700D01*
X465700Y35200D02*
X466100Y36000D01*
X465700Y36800D01*
X466500Y36400D01*
X467300Y36800D01*
X466900Y36000D01*
X467300Y35200D01*
X466500Y35600D01*
X465700Y35200D01*
X477700Y20700D02*
X478100Y21500D01*
X477700Y22300D01*
X478500Y21900D01*
X479300Y22300D01*
X478900Y21500D01*
X479300Y20700D01*
X478500Y21100D01*
X477700Y20700D01*
X472700D02*
X473100Y21500D01*
X472700Y22300D01*
X473500Y21900D01*
X474300Y22300D01*
X473900Y21500D01*
X474300Y20700D01*
X473500Y21100D01*
X472700Y20700D01*
X467200D02*
X467600Y21500D01*
X467200Y22300D01*
X468000Y21900D01*
X468800Y22300D01*
X468400Y21500D01*
X468800Y20700D01*
X468000Y21100D01*
X467200Y20700D01*
X461700D02*
X462100Y21500D01*
X461700Y22300D01*
X462500Y21900D01*
X463300Y22300D01*
X462900Y21500D01*
X463300Y20700D01*
X462500Y21100D01*
X461700Y20700D01*
X388500Y9700D02*
X388900Y10100D01*
X389300D01*
X388900Y10500D01*
X389300Y10900D01*
X388900D01*
X388500Y11300D01*
X388100Y10900D01*
X387700D01*
X388100Y10500D01*
X387700Y10100D01*
X388100D01*
X388500Y9700D01*
X369500D02*
X369900Y10100D01*
X370300D01*
X369900Y10500D01*
X370300Y10900D01*
X369900D01*
X369500Y11300D01*
X369100Y10900D01*
X368700D01*
X369100Y10500D01*
X368700Y10100D01*
X369100D01*
X369500Y9700D01*
X466200Y73700D02*
X466600Y74500D01*
X466200Y75300D01*
X467000Y74900D01*
X467800Y75300D01*
X467400Y74500D01*
X467800Y73700D01*
X467000Y74100D01*
X466200Y73700D01*
X464700Y185700D02*
X465100Y186500D01*
X464700Y187300D01*
X465500Y186900D01*
X466300Y187300D01*
X465900Y186500D01*
X466300Y185700D01*
X465500Y186100D01*
X464700Y185700D01*
D44*
X281800Y241000D02*
G03*
X281800Y241000I-800J0D01*
G01*
X320973D02*
G03*
X320973Y241000I-800J0D01*
G01*
X410800Y36000D02*
G03*
X410800Y36000I-800J0D01*
G01*
X371627D02*
G03*
X371627Y36000I-800J0D01*
G01*
X364800Y216500D02*
G03*
X364800Y216500I-800J0D01*
G01*
X374800D02*
G03*
X374800Y216500I-800J0D01*
G01*
X404800D02*
G03*
X404800Y216500I-800J0D01*
G01*
X414800D02*
G03*
X414800Y216500I-800J0D01*
G01*
X424800D02*
G03*
X424800Y216500I-800J0D01*
G01*
X361800Y120000D02*
G03*
X361800Y120000I-800J0D01*
G01*
X371800D02*
G03*
X371800Y120000I-800J0D01*
G01*
X401800D02*
G03*
X401800Y120000I-800J0D01*
G01*
X411800D02*
G03*
X411800Y120000I-800J0D01*
G01*
X421800D02*
G03*
X421800Y120000I-800J0D01*
G01*
X174300Y44000D02*
G03*
X174300Y44000I-800J0D01*
G01*
X184300D02*
G03*
X184300Y44000I-800J0D01*
G01*
X194300D02*
G03*
X194300Y44000I-800J0D01*
G01*
X204300D02*
G03*
X204300Y44000I-800J0D01*
G01*
X214300D02*
G03*
X214300Y44000I-800J0D01*
G01*
X224300D02*
G03*
X224300Y44000I-800J0D01*
G01*
X164300Y119000D02*
G03*
X164300Y119000I-800J0D01*
G01*
X174300D02*
G03*
X174300Y119000I-800J0D01*
G01*
X204300D02*
G03*
X204300Y119000I-800J0D01*
G01*
X214300D02*
G03*
X214300Y119000I-800J0D01*
G01*
X224300D02*
G03*
X224300Y119000I-800J0D01*
G01*
X165300Y216000D02*
G03*
X165300Y216000I-800J0D01*
G01*
X175300D02*
G03*
X175300Y216000I-800J0D01*
G01*
X205300D02*
G03*
X205300Y216000I-800J0D01*
G01*
X215300D02*
G03*
X215300Y216000I-800J0D01*
G01*
X225300D02*
G03*
X225300Y216000I-800J0D01*
G01*
M02*
